<?xml version="1.0" standalone="no"?>
<!DOCTYPE svg PUBLIC "-//W3C//DTD SVG 20010904//EN"
 "http://www.w3.org/TR/2001/REC-SVG-20010904/DTD/svg10.dtd">
<svg version="1.0" xmlns="http://www.w3.org/2000/svg"
 width="1024.000000pt" height="1024.000000pt" viewBox="0 0 1024.000000 1024.000000"
 preserveAspectRatio="xMidYMid meet">

<g transform="translate(0.000000,1024.000000) scale(0.100000,-0.100000)"
fill="#000000" stroke="none">
<path d="M0 5120 l0 -5120 5120 0 5120 0 0 5120 0 5120 -5120 0 -5120 0 0
-5120z m4591 3848 c39 -11 39 -12 39 -62 0 -49 -2 -53 -35 -70 -30 -17 -40
-18 -74 -7 -36 10 -39 14 -44 54 -4 37 -1 45 24 70 33 31 37 31 90 15z m481
-125 c29 -15 33 -22 35 -60 1 -40 -2 -46 -35 -67 l-37 -24 -37 19 c-36 18 -38
22 -38 67 0 45 3 50 33 65 41 20 40 20 79 0z m173 0 c33 -16 35 -20 35 -63 0
-42 -3 -48 -36 -66 -33 -20 -38 -20 -70 -5 -32 14 -34 18 -34 66 0 44 3 52 28
67 35 21 35 21 77 1z m-361 -9 c29 -14 35 -23 41 -61 3 -25 5 -46 3 -47 -2 -1
-19 -12 -38 -23 -33 -20 -37 -20 -70 -5 -31 15 -35 22 -38 62 -3 39 0 48 25
67 34 27 33 27 77 7z m-710 -125 c18 -9 27 -22 31 -51 6 -35 3 -43 -21 -69
-15 -16 -33 -29 -40 -29 -31 0 -66 26 -80 58 -13 33 -13 37 11 68 28 36 55 43
99 23z m811 -33 c33 -14 35 -17 35 -65 0 -45 -3 -51 -34 -69 -32 -19 -36 -19
-69 -4 -55 24 -60 103 -9 135 33 20 35 20 77 3z m-974 -25 c4 -3 12 -23 19
-43 10 -35 9 -41 -12 -67 -16 -21 -32 -30 -53 -30 -48 0 -66 12 -80 52 -11 33
-10 39 13 72 24 34 28 36 66 30 23 -4 44 -10 47 -14z m809 4 c26 -14 30 -21
30 -58 0 -36 -5 -47 -30 -65 -27 -20 -33 -21 -70 -10 -37 12 -40 16 -46 57 -6
41 -4 47 22 68 34 27 54 29 94 8z m866 -23 c26 -24 30 -33 26 -66 -4 -33 -10
-40 -40 -53 -33 -14 -39 -14 -69 3 -28 14 -33 23 -33 53 0 44 10 61 47 77 38
17 35 17 69 -14z m-1090 9 c-4 -5 3 -7 14 -4 15 4 20 0 20 -13 0 -16 2 -17 10
-4 14 22 28 2 32 -45 3 -34 -1 -43 -26 -62 -24 -18 -32 -20 -55 -10 -39 17
-52 28 -49 46 1 9 -1 22 -6 29 -6 10 -3 12 10 10 12 -2 19 4 22 17 6 34 11 45
22 45 6 0 9 -4 6 -9z m-1074 -41 c22 -45 22 -43 -8 -79 -27 -33 -54 -41 -54
-16 0 21 -20 19 -21 -2 -1 -17 -2 -17 -6 0 -2 9 -11 17 -19 17 -8 0 -14 4 -14
9 0 13 26 32 34 24 4 -4 4 0 1 10 -6 14 -9 15 -22 2 -26 -27 -35 -16 -9 12 14
15 22 31 20 35 -3 5 -12 1 -20 -9 -13 -16 -13 -15 -4 7 10 23 17 26 58 25 43
0 48 -3 64 -35z m928 0 c0 -5 10 -10 23 -11 21 0 21 -1 2 -9 -18 -8 -18 -9 5
-9 19 -1 21 -4 12 -13 -7 -7 -12 -19 -12 -27 0 -14 1 -14 10 -1 8 13 10 12 10
-3 0 -26 -47 -69 -68 -63 -9 3 -29 8 -44 12 -26 6 -28 10 -28 54 0 48 7 57 48
66 8 1 16 5 20 8 9 9 22 7 22 -4z m2090 -21 c27 -31 27 -32 11 -70 -9 -22 -23
-41 -31 -43 -64 -17 -68 -17 -95 18 -24 32 -25 34 -9 62 l16 29 -6 -33 c-6
-36 15 -55 37 -33 9 10 9 12 -3 9 -10 -2 -14 6 -15 30 0 17 3 32 8 32 4 0 7
-5 7 -11 0 -8 5 -7 16 2 13 11 17 10 26 -4 5 -10 13 -15 19 -12 14 9 -16 35
-43 36 -22 0 -22 1 -3 9 31 13 36 12 65 -21z m-2735 11 c25 0 38 -16 49 -62 5
-21 0 -34 -21 -58 -25 -27 -32 -29 -67 -24 -33 6 -41 13 -56 47 -17 36 -17 41
-1 59 33 41 44 49 58 44 8 -3 25 -6 38 -6z m511 -32 c7 -7 15 -29 19 -49 6
-32 3 -39 -25 -63 -32 -27 -38 -27 -96 -5 -15 5 -23 20 -28 49 -6 36 -3 43 21
66 22 19 35 23 62 20 19 -3 40 -11 47 -18z m767 -52 c25 -6 27 -9 27 -62 l0
-55 -67 3 -68 3 -3 48 c-3 45 -2 48 29 61 18 8 38 12 43 11 6 -2 23 -6 39 -9z
m-145 -19 c6 -5 12 -29 12 -52 0 -48 -10 -55 -91 -55 -44 0 -47 2 -53 31 -11
57 -7 69 27 84 33 14 82 10 105 -8z m330 14 c9 -5 12 -25 10 -57 l-3 -49 -65
0 -65 0 -3 44 c-5 65 0 71 60 71 29 0 59 -4 66 -9z m166 -14 c16 -12 18 -22
12 -62 l-8 -47 -36 6 c-20 3 -49 6 -64 6 -27 0 -28 2 -28 48 0 27 3 52 7 55
12 12 99 7 117 -6z m-673 -7 c15 -8 19 -21 19 -59 l0 -48 -62 -7 c-34 -3 -65
-3 -69 1 -7 7 -13 60 -10 90 2 25 87 41 122 23z m823 0 c21 -8 26 -16 26 -44
0 -67 -13 -74 -102 -60 -37 6 -38 8 -38 50 0 30 5 46 18 53 22 13 64 14 96 1z
m-1637 -6 c25 -5 33 -13 42 -46 11 -37 10 -42 -14 -74 -17 -22 -33 -33 -42
-30 -8 3 -25 6 -37 6 -16 0 -27 10 -39 35 -22 46 -21 51 6 85 23 30 36 34 84
24z m664 -50 c16 -71 15 -72 -56 -79 -36 -4 -69 -5 -72 -2 -3 4 -9 24 -13 47
-8 46 1 59 53 69 50 11 81 -1 88 -35z m1152 24 c15 -8 17 -17 12 -51 -4 -23
-10 -45 -14 -48 -3 -4 -34 -2 -68 4 -55 10 -63 14 -63 33 0 36 17 72 37 77 22
6 71 -2 96 -15z m156 -29 c21 -9 23 -13 17 -51 -9 -55 -13 -59 -44 -52 -113
25 -114 26 -88 88 13 32 17 34 52 29 21 -3 49 -9 63 -14z m-1480 -7 c5 -9 11
-32 13 -51 l3 -34 -60 -13 c-33 -7 -63 -13 -67 -13 -10 -1 -30 79 -24 95 13
34 118 47 135 16z m-620 -43 l20 -41 -27 -34 c-23 -30 -32 -34 -66 -32 -32 3
-42 9 -59 39 l-21 36 23 36 c21 34 27 37 67 37 41 0 45 -2 63 -41z m460 -10
c19 -56 15 -65 -36 -77 -27 -6 -56 -14 -65 -17 -13 -5 -19 2 -29 33 -6 22 -9
48 -6 56 8 21 42 35 89 35 32 1 37 -3 47 -30z m1786 17 c40 -17 39 -15 23 -68
-8 -27 -16 -37 -26 -33 -8 3 -34 10 -58 16 -39 10 -44 15 -44 39 0 16 3 35 6
44 8 20 53 21 99 2z m-1942 -70 c17 -50 14 -56 -42 -75 -58 -19 -78 -15 -90
20 -6 18 -11 38 -11 46 0 20 60 53 97 53 28 0 33 -4 46 -44z m2105 18 c35 -14
38 -22 20 -71 -14 -38 -14 -38 -86 -16 -53 17 -54 18 -48 51 10 64 30 70 114
36z m-2272 -55 c29 -61 28 -65 -28 -87 -77 -31 -78 -31 -95 11 -22 54 -7 83
49 95 55 12 61 11 74 -19z m2413 7 c42 -15 56 -35 48 -67 -14 -52 -20 -54 -88
-27 -67 26 -69 30 -49 84 11 27 35 30 89 10z m-2911 -22 c24 -5 32 -13 37 -35
4 -16 11 -29 16 -29 16 0 10 -17 -17 -49 -34 -41 -83 -43 -113 -5 -26 34 -26
58 0 95 22 31 28 33 77 23z m342 -54 c11 -21 20 -43 20 -48 0 -5 -27 -20 -60
-35 l-61 -26 -19 32 c-23 37 -24 46 -7 68 9 13 73 42 104 49 2 0 12 -18 23
-40z m2711 15 c24 -9 51 -23 61 -31 16 -16 16 -18 -3 -55 -10 -22 -23 -39 -27
-39 -22 1 -117 60 -114 72 6 28 25 68 32 68 4 0 27 -7 51 -15z m-2858 -90 c9
-20 17 -38 17 -40 0 -4 -118 -65 -126 -65 -1 0 -12 16 -23 36 -20 34 -21 38
-6 54 21 23 74 49 101 50 14 0 26 -12 37 -35z m3033 8 c30 -14 54 -30 54 -34
0 -16 -34 -79 -42 -79 -5 0 -35 14 -68 30 l-60 30 20 40 c11 22 25 40 31 40 6
0 35 -12 65 -27z m-1752 -44 c8 -44 8 -89 -2 -89 -42 0 -326 -41 -341 -50 -23
-12 -39 -57 -25 -69 5 -5 88 2 184 15 96 13 178 23 183 24 4 0 7 -24 7 -54 l0
-54 -37 -6 c-21 -3 -92 -13 -158 -21 -168 -22 -165 -21 -165 -49 0 -58 35 -65
215 -41 61 8 127 15 148 15 l37 0 0 -55 c0 -30 -4 -55 -9 -55 -6 0 -72 -9
-148 -21 -232 -34 -289 -26 -340 50 -28 41 -40 83 -54 181 -16 110 -6 156 45
206 25 25 57 46 81 53 34 9 205 32 325 44 19 2 38 5 41 5 4 1 9 -12 13 -29z
m816 -34 c220 -44 245 -51 273 -78 37 -34 47 -61 47 -121 0 -132 -68 -226
-164 -226 -33 0 -266 47 -274 55 -2 2 -1 27 3 54 5 36 11 51 22 51 8 0 59 -9
113 -20 119 -24 144 -19 159 37 22 78 11 88 -135 118 -66 14 -126 25 -135 25
-20 0 -21 -3 -59 -211 -16 -89 -32 -164 -34 -167 -11 -11 -117 10 -123 24 -3
8 0 41 6 72 6 31 23 118 37 192 48 259 43 241 67 235 12 -2 101 -20 197 -40z
m-2247 -10 c20 -43 21 -45 4 -45 -6 0 -33 -11 -58 -24 l-46 -25 -17 35 c-19
40 -16 48 28 75 47 29 70 25 89 -16z m3326 16 c64 -33 73 -57 37 -104 -13 -17
-17 -16 -79 14 l-66 33 21 38 c25 43 34 45 87 19z m363 -8 c54 -62 7 -144 -74
-129 -26 5 -38 14 -51 41 -13 26 -14 36 -4 42 7 4 17 17 23 28 19 34 83 44
106 18z m-4399 -55 c15 -17 22 -72 8 -63 -6 3 -11 -2 -11 -12 0 -15 -4 -13
-26 9 -21 20 -25 32 -20 52 7 28 30 34 49 14z m576 -24 c6 -14 11 -29 11 -34
0 -8 -100 -70 -113 -70 -3 0 -15 16 -27 36 -22 34 -22 36 -4 50 30 24 96 53
109 48 7 -3 17 -16 24 -30z m3609 -3 c54 -28 76 -55 63 -78 -23 -43 -38 -47
-83 -20 -85 50 -85 50 -59 86 26 36 30 37 79 12z m-4293 -41 c-3 -6 4 -10 17
-10 13 0 30 -11 39 -23 15 -20 15 -26 2 -60 -8 -20 -19 -35 -23 -32 -5 3 -11
1 -15 -5 -3 -5 -12 -10 -20 -10 -10 0 -13 11 -9 44 3 31 0 47 -11 56 -8 7 -12
16 -9 21 3 5 -3 10 -13 10 -10 1 -4 5 12 9 17 4 31 8 33 9 2 0 0 -3 -3 -9z
m565 -71 c0 -4 -25 -24 -55 -44 l-55 -38 -25 23 c-36 34 -28 59 30 98 l50 33
28 -33 c15 -18 27 -35 27 -39z m950 50 c43 -26 54 -40 84 -105 51 -108 67
-194 45 -251 -14 -38 -65 -89 -103 -104 -17 -7 -73 -30 -124 -52 -52 -21 -94
-37 -96 -35 -10 18 -35 102 -31 108 2 4 39 20 82 35 43 15 93 39 112 53 32 24
33 27 28 77 -9 91 -63 175 -112 175 -17 0 -225 -78 -237 -89 -4 -4 22 -84 57
-179 36 -95 65 -178 65 -185 0 -8 -23 -24 -51 -37 -43 -20 -52 -22 -59 -10
-13 21 -190 457 -190 467 0 7 212 94 336 138 61 22 152 19 194 -6z m2981 -75
l21 -23 -23 -30 c-13 -16 -28 -30 -32 -30 -11 -1 -117 72 -117 81 0 3 12 20
26 37 l26 31 39 -22 c21 -12 49 -32 60 -44z m-4561 6 c0 -5 -2 -10 -4 -10 -3
0 -8 5 -11 10 -3 6 -1 10 4 10 6 0 11 -4 11 -10z m4780 -12 c-20 -22 -19 -41
2 -20 18 18 48 14 49 -5 1 -10 5 -4 9 12 l8 30 1 -27 c0 -15 6 -30 13 -34 8
-5 9 0 6 14 -9 32 6 27 18 -7 10 -26 8 -32 -19 -61 -27 -29 -34 -31 -71 -26
-22 4 -44 12 -48 19 -18 29 16 127 44 127 5 0 0 -10 -12 -22z m-862 -28 c39
-18 65 -38 71 -52 10 -27 26 -578 17 -578 -4 0 -33 14 -66 30 l-60 30 0 58 0
57 -105 50 c-58 27 -105 51 -105 53 0 5 33 56 47 73 13 15 20 13 78 -17 36
-19 69 -34 73 -34 6 0 5 187 -1 213 -1 4 -25 -12 -53 -35 -70 -59 -217 -177
-262 -211 l-37 -27 -63 27 c-56 25 -78 43 -53 43 5 0 16 6 23 13 7 7 69 58
138 114 69 55 159 128 200 162 41 33 79 61 85 61 5 0 38 -13 73 -30z m-3448
-5 c23 -25 23 -25 4 -46 -10 -12 -37 -33 -58 -47 l-40 -25 -23 28 c-13 15 -22
32 -20 39 5 15 86 76 101 76 7 0 23 -11 36 -25z m4168 -19 c15 -8 40 -28 55
-44 l29 -30 -29 -32 -29 -32 -51 41 c-28 22 -54 44 -57 49 -5 8 39 62 50 62 3
0 17 -6 32 -14z m487 -6 c-3 -5 -2 -10 4 -10 5 0 12 6 14 13 3 6 6 0 6 -15 1
-24 -2 -26 -33 -22 -19 2 -38 0 -41 -6 -3 -5 2 -10 12 -10 17 -1 17 -1 0 -11
-14 -8 -22 -8 -30 0 -8 8 -2 19 23 41 35 29 57 39 45 20z m75 -20 c6 -11 8
-20 6 -20 -3 0 -10 9 -16 20 -6 11 -8 20 -6 20 3 0 10 -9 16 -20z m-5045 -26
c24 -32 26 -38 15 -65 -26 -63 -80 -76 -124 -30 -24 25 -27 35 -22 65 14 72
86 89 131 30z m192 -67 c-3 -8 -26 -31 -51 -52 -39 -32 -48 -35 -62 -25 -46
39 -39 71 25 111 l45 29 25 -24 c13 -13 21 -31 18 -39z m4467 -25 c20 -19 36
-40 36 -46 0 -12 -40 -56 -52 -56 -13 0 -108 81 -108 92 0 5 11 20 25 32 32
30 53 25 99 -22z m-4611 -47 c15 -13 27 -28 26 -32 -1 -4 -25 -30 -55 -57
l-54 -49 -25 23 c-39 37 -30 64 39 118 35 27 35 27 69 -3z m713 -6 c39 -24 99
-99 138 -173 32 -61 36 -145 7 -192 -19 -31 -121 -113 -226 -179 -108 -69
-193 -60 -273 31 -105 117 -140 241 -91 320 25 40 166 149 252 194 53 27 69
31 110 26 27 -3 64 -15 83 -27z m4012 -54 c53 -46 61 -70 30 -95 -13 -11 -28
-19 -33 -20 -6 0 -33 22 -59 49 l-49 50 29 25 c16 14 32 26 35 26 3 0 24 -16
47 -35z m-2008 -24 c443 -76 811 -233 1165 -497 261 -194 513 -470 674 -736
33 -55 18 -47 -18 10 -291 455 -709 815 -1181 1017 -201 87 -426 153 -645 189
-313 53 -698 37 -1025 -41 -524 -124 -1003 -409 -1357 -805 -28 -32 -54 -58
-58 -58 -20 0 151 180 276 290 388 345 899 578 1399 639 147 18 160 19 405 16
188 -3 267 -8 365 -24z m1492 -3 c27 -18 48 -36 48 -39 0 -3 -42 -64 -92 -135
-51 -71 -115 -162 -142 -202 -26 -39 -53 -72 -58 -72 -5 0 -31 14 -58 32 l-49
32 19 31 c44 69 272 385 278 385 4 0 28 -15 54 -32z m-4313 -63 c0 -5 -21 -32
-48 -59 l-49 -49 -25 19 c-44 32 -42 45 12 97 l51 48 29 -23 c17 -13 30 -27
30 -33z m5340 36 c11 -11 22 -16 26 -13 3 4 3 -2 -1 -13 -4 -11 -14 -25 -22
-31 -12 -9 -12 -13 3 -27 9 -9 12 -17 6 -17 -6 0 -10 -5 -8 -11 5 -24 -28 -31
-66 -16 -35 15 -37 19 -37 61 0 40 3 46 30 58 17 7 30 16 30 20 0 14 20 8 39
-11z m38 -53 c-3 -8 -6 -5 -6 6 -1 11 2 17 5 13 3 -3 4 -12 1 -19z m-417 -24
c47 -42 52 -74 15 -98 -13 -9 -28 -16 -32 -15 -4 1 -28 24 -53 51 l-45 50 30
24 c17 13 33 24 37 24 5 0 26 -16 48 -36z m-5310 -39 c7 -8 9 -15 6 -15 -4 0
-14 7 -22 15 -9 8 -11 15 -6 15 5 0 15 -7 22 -15z m225 -35 c8 -13 -81 -120
-99 -120 -7 0 -23 11 -36 25 -22 24 -22 25 -5 52 9 15 31 40 48 55 29 24 34
25 59 12 15 -8 30 -19 33 -24z m-181 -44 c-3 -12 -13 -28 -21 -36 -14 -13 -14
-12 -3 9 10 19 9 25 -1 32 -9 6 -10 9 -2 9 6 0 9 9 6 23 -4 21 -4 22 11 3 10
-12 14 -28 10 -40z m5008 -113 c148 -150 166 -173 173 -210 9 -54 1 -78 -43
-132 -66 -81 -150 -119 -204 -90 -11 6 -22 8 -25 5 -3 -3 -9 -41 -14 -85 -4
-45 -11 -86 -14 -91 -4 -7 -27 8 -58 37 l-52 48 14 99 14 99 -52 50 c-57 55
-58 45 3 115 l20 22 87 -85 c62 -61 94 -85 111 -85 31 0 78 45 78 74 0 14 -36
57 -100 121 l-100 100 -140 -140 -139 -139 -23 21 c-13 11 -35 31 -50 44 l-26
24 176 181 c97 100 182 182 188 183 5 1 85 -74 176 -166z m-5068 126 c-9 -11
-18 -18 -18 -17 -1 2 -7 11 -14 20 -11 14 -10 16 7 11 13 -3 21 -1 21 6 0 7 5
9 11 6 7 -5 4 -14 -7 -26z m5423 -4 c12 -8 31 -31 43 -51 l22 -35 -23 -25
c-12 -13 -28 -24 -34 -24 -6 0 -31 24 -54 52 l-43 53 27 22 c31 27 34 28 62 8z
m-5407 -19 c0 -2 -8 -10 -17 -17 -16 -13 -17 -12 -4 4 13 16 21 21 21 13z
m-47 -31 c-3 -9 -8 -14 -10 -11 -3 3 -2 9 2 15 9 16 15 13 8 -4z m6405 -14 c3
-8 -1 -12 -9 -9 -7 2 -15 10 -17 17 -3 8 1 12 9 9 7 -2 15 -10 17 -17z m-6270
-31 l24 -20 -52 -65 -52 -65 -29 21 c-39 27 -37 48 12 103 45 50 62 55 97 26z
m456 -25 c45 -41 53 -23 -85 -186 -102 -121 -119 -146 -119 -177 0 -32 85
-111 148 -139 42 -17 62 -7 119 63 21 26 69 84 107 128 38 45 71 83 73 85 2 3
21 -13 43 -34 l39 -38 -22 -31 c-12 -18 -69 -87 -126 -154 -167 -195 -230
-208 -396 -78 -87 69 -115 114 -115 190 0 73 21 109 146 249 44 49 92 104 109
123 16 19 32 34 35 34 4 0 23 -16 44 -35z m4983 -27 c11 -13 29 -36 39 -52
l18 -29 -29 -23 c-17 -13 -33 -24 -37 -24 -4 0 -26 25 -49 57 l-42 56 23 19
c30 24 52 23 77 -4z m183 6 c0 -10 6 -14 14 -11 22 9 38 -18 34 -55 -2 -26
-10 -36 -38 -49 -32 -15 -36 -15 -60 -1 -46 30 -51 51 -21 81 13 13 15 21 8
24 -6 2 -4 6 6 10 9 3 17 2 17 -3 0 -6 7 -10 15 -10 18 0 20 16 3 23 -8 3 -6
6 5 6 9 1 17 -6 17 -15z m718 -67 c2 -11 -3 -17 -16 -17 -20 0 -36 23 -24 34
11 12 37 1 40 -17z m-6810 -51 c6 -46 -5 -70 -38 -85 -28 -12 -36 -11 -71 4
-34 16 -39 22 -39 53 0 34 28 67 69 83 27 10 76 -24 79 -55z m6642 45 c0 -12
-28 -22 -34 -12 -3 5 -3 11 1 15 9 9 33 7 33 -3z m-6480 -16 c48 -25 47 -96
-2 -121 -35 -18 -69 -10 -62 14 5 13 4 14 -4 3 -16 -22 -38 -6 -40 30 -2 36
11 58 43 77 26 15 31 15 65 -3z m189 -19 l23 -24 -24 -34 c-12 -18 -26 -35
-29 -38 -3 -3 -11 -15 -18 -28 -12 -23 -21 -22 -65 11 -17 12 -18 18 -7 48 14
40 58 89 81 89 9 0 27 -11 39 -24z m5679 -55 c17 -23 32 -50 32 -60 0 -15 -46
-51 -67 -51 -5 0 -25 25 -46 55 l-36 54 32 25 c18 14 37 24 42 23 6 -2 25 -23
43 -46z m175 20 c15 -8 27 -19 27 -25 0 -6 -5 -5 -12 2 -18 18 -30 15 -20 -5
8 -17 8 -27 4 -75 -1 -11 -10 -18 -24 -18 -19 0 -20 -2 -8 -11 11 -8 9 -9 -10
-3 -36 9 -47 21 -60 60 -10 30 -9 38 7 56 17 20 53 39 63 35 3 -2 17 -9 33
-16z m37 -70 c0 -17 -4 -33 -10 -36 -6 -4 -10 8 -10 29 0 20 5 36 10 36 6 0
10 -13 10 -29z m-5972 -57 c4 -2 -21 -45 -52 -91 -28 -42 -29 -42 -56 -28 -16
8 -30 20 -33 27 -6 18 30 88 57 109 20 16 23 16 51 1 16 -10 31 -17 33 -18z
m5846 -32 c14 -21 26 -43 26 -49 0 -11 -68 -59 -74 -52 -19 23 -56 86 -56 94
0 11 49 44 66 45 6 0 23 -17 38 -38z m-3603 -155 c63 -62 157 -145 209 -184
111 -84 389 -263 408 -263 18 0 84 39 227 133 187 124 301 213 414 325 l104
104 36 -15 c178 -73 752 -304 811 -327 41 -16 143 -56 225 -89 l150 -60 -1
-303 c-1 -279 -8 -389 -39 -626 -12 -91 -61 -301 -97 -410 -99 -306 -206 -517
-407 -797 -35 -49 -67 -92 -70 -95 -4 -3 -22 -25 -41 -50 -105 -136 -356 -394
-520 -535 -204 -174 -484 -387 -741 -562 l-45 -31 -80 51 c-133 87 -245 169
-511 373 -329 253 -703 647 -912 958 -82 122 -198 337 -245 452 -164 402 -226
771 -226 1347 0 208 2 228 18 234 30 10 861 343 1032 413 91 37 170 68 176 69
5 0 62 -50 125 -112z m3680 -38 c-36 -29 -57 -23 -85 23 l-25 43 36 22 37 22
30 -46 30 -46 -23 -18z m-6116 -10 c-4 -12 -1 -21 9 -25 9 -3 16 -10 16 -14 0
-5 -10 -3 -22 3 -46 25 -49 27 -38 47 13 25 43 15 35 -11z m32 1 c-1 -20 -8
-25 -20 -14 -3 3 0 12 6 20 16 17 16 17 14 -6z m6160 -55 c32 -57 30 -78 -12
-98 -20 -9 -38 -17 -40 -17 -7 0 -65 104 -65 117 0 16 50 43 75 40 11 -1 29
-19 42 -42z m-6347 -35 c14 -35 0 -70 -36 -92 -27 -15 -31 -15 -64 1 -28 13
-36 23 -38 49 -3 27 3 40 26 62 28 26 33 28 66 18 23 -7 39 -20 46 -38z m166
20 c12 0 0 -37 -27 -85 l-31 -55 -36 16 c-20 8 -38 17 -40 19 -11 10 11 77 34
105 25 29 26 29 61 15 19 -8 37 -15 39 -15z m1002 -20 c-7 -11 -17 -20 -22
-20 -5 0 -1 9 9 20 10 11 20 20 22 20 2 0 -2 -9 -9 -20z m-1353 -69 c-3 -6
-14 -10 -23 -10 -15 1 -15 2 1 6 9 2 17 9 17 15 0 6 3 9 6 5 3 -3 3 -10 -1
-16z m1274 -33 c-124 -156 -283 -454 -352 -658 -100 -295 -134 -484 -147 -820
l-8 -205 3 215 c5 360 58 623 192 950 63 154 228 443 290 508 7 8 18 22 23 33
6 10 16 19 22 19 6 0 -5 -19 -23 -42z m-1322 16 c-3 -3 -12 -4 -19 -1 -8 3 -5
6 6 6 11 1 17 -2 13 -5z m6629 -2 c15 -9 54 -87 54 -107 0 -14 -54 -45 -79
-45 -11 0 -61 102 -61 124 0 24 62 44 86 28z m-6319 -48 l22 -14 -25 -57 c-14
-32 -29 -62 -33 -66 -5 -4 -24 0 -45 9 -29 14 -36 23 -36 47 0 30 13 61 38 90
16 18 40 16 79 -9z m6399 -129 c17 -17 44 -78 44 -100 0 -16 -55 -45 -84 -45
-9 0 -23 25 -36 66 -12 36 -20 67 -19 68 34 27 74 32 95 11z m-6448 -39 c3 -3
-35 -102 -44 -114 -1 -2 -20 2 -43 9 -45 13 -51 31 -31 86 17 45 37 55 78 37
20 -8 38 -16 40 -18z m5536 -151 c54 -101 131 -283 123 -291 -2 -2 -23 44 -47
102 -23 59 -66 152 -96 206 -30 54 -54 102 -54 106 0 11 17 -16 74 -123z m974
5 c4 -13 3 -13 -11 -2 -14 12 -17 9 -22 -22 -6 -30 -9 -33 -21 -21 -17 16 -18
31 -4 38 6 3 5 4 -2 3 -8 -2 -12 -16 -10 -37 3 -39 -5 -35 -18 10 -8 28 -6 33
13 41 31 13 70 8 75 -10z m25 -49 c4 -4 -2 -7 -13 -6 -11 1 -26 7 -33 14 -10
11 -7 12 13 6 14 -4 29 -11 33 -14z m-43 -41 c0 -5 -4 -10 -10 -10 -5 0 -10 5
-10 10 0 6 5 10 10 10 6 0 10 -4 10 -10z m30 -10 c0 -5 -5 -10 -11 -10 -5 0
-7 5 -4 10 3 6 8 10 11 10 2 0 4 -4 4 -10z m-6634 -18 c13 -9 12 -34 -5 -84
-13 -41 -29 -46 -76 -28 -21 8 -24 14 -19 37 14 68 25 83 58 83 17 0 36 -4 42
-8z m6672 -39 c5 -10 7 -24 4 -32 -2 -8 0 -11 6 -8 10 7 22 -23 22 -60 0 -15
-7 -24 -22 -27 -13 -3 -35 -7 -49 -10 -25 -5 -27 -2 -44 60 -10 36 -16 67 -14
69 4 3 67 22 81 24 4 1 11 -7 16 -16z m710 -61 c2 -7 -3 -12 -12 -12 -9 0 -16
7 -16 16 0 17 22 14 28 -4z m-1594 -118 c3 -8 2 -12 -4 -9 -6 3 -10 10 -10 16
0 14 7 11 14 -7z m44 -144 c0 -8 -6 1 -13 20 -7 19 -13 42 -13 50 0 8 6 -1 13
-20 7 -19 13 -42 13 -50z m849 44 c-3 -3 -12 -4 -19 -1 -8 3 -5 6 6 6 11 1 17
-2 13 -5z m-820 -176 c-3 -8 -6 -5 -6 6 -1 11 2 17 5 13 3 -3 4 -12 1 -19z
m10 -40 c-3 -8 -6 -5 -6 6 -1 11 2 17 5 13 3 -3 4 -12 1 -19z m881 -43 c-1
-59 7 -78 23 -55 9 15 8 27 -6 65 -7 17 -6 18 6 7 14 -13 19 -85 7 -98 -4 -3
-27 -9 -53 -11 l-45 -6 1 54 c1 39 3 47 8 29 7 -24 7 -24 14 9 4 20 3 39 -3
45 -7 7 -10 4 -10 -7 0 -9 -4 -17 -10 -17 -14 0 -12 27 3 33 6 3 24 6 38 6 26
1 27 -1 27 -54z m-860 -65 l0 -25 -8 25 c-4 14 -8 36 -8 50 l0 25 8 -25 c4
-14 8 -36 8 -50z m-5988 3 c0 -72 -8 -93 -36 -93 -13 0 -24 6 -25 13 0 9 -2 9
-6 0 -3 -9 -10 -10 -24 -3 -21 12 -26 61 -9 104 8 23 15 26 55 26 l45 0 0 -47z
m1420 27 c0 -5 -19 -10 -42 -10 -24 0 -48 -4 -54 -8 -7 -4 -21 -50 -32 -102
-23 -111 -30 -99 97 -163 46 -23 86 -49 90 -59 3 -9 4 -65 1 -125 l-5 -108
-103 -49 -103 -50 6 -40 c3 -23 10 -69 16 -102 l11 -61 66 -7 c37 -3 87 -6
112 -6 25 0 50 -4 56 -8 10 -6 94 -198 94 -215 0 -3 -34 -45 -75 -92 -41 -48
-75 -89 -75 -93 0 -6 102 -147 118 -164 4 -4 52 11 105 33 54 22 102 39 107
37 28 -9 179 -146 179 -161 1 -11 -10 -62 -24 -115 -14 -52 -24 -101 -21 -108
3 -7 43 -33 89 -58 l85 -47 85 88 c79 81 87 86 108 76 l24 -12 -25 -1 c-18 -1
-46 -25 -99 -86 -41 -46 -81 -84 -88 -84 -17 0 -134 63 -180 97 l-32 23 25 87
c42 147 42 145 -3 178 -21 16 -57 47 -81 69 l-43 39 -102 -41 c-57 -23 -107
-42 -113 -42 -5 1 -18 15 -30 33 -11 18 -41 62 -67 98 l-47 67 81 91 81 92
-35 82 c-19 45 -37 90 -40 100 -5 14 -19 17 -79 18 -40 0 -95 4 -123 7 l-50 7
-12 60 c-7 33 -15 88 -19 121 l-6 61 104 44 105 44 7 109 c4 59 5 110 2 113
-3 3 -51 27 -108 53 -64 30 -104 55 -107 66 -4 20 14 112 35 184 l15 50 59 0
c33 0 60 -4 60 -10z m4091 -110 c14 -75 19 -123 13 -129 -5 -5 -52 -28 -104
-51 -52 -23 -99 -46 -105 -51 -9 -9 -9 -179 1 -209 2 -8 50 -35 105 -59 56
-24 103 -50 106 -58 5 -14 -25 -224 -34 -233 -3 -3 -59 -7 -125 -10 l-121 -5
-39 -98 -39 -98 75 -85 c42 -46 76 -90 76 -96 0 -12 -108 -174 -126 -189 -7
-6 -45 5 -109 31 -54 22 -102 40 -107 40 -15 0 -168 -133 -168 -147 0 -7 14
-61 30 -120 17 -58 30 -108 30 -109 0 -6 -204 -114 -215 -114 -12 0 -155 153
-155 167 0 4 35 -28 79 -71 l79 -78 81 43 c45 23 86 49 92 56 8 9 3 44 -17
127 l-28 114 39 33 c22 19 61 53 87 77 27 23 52 42 57 42 5 0 51 -16 102 -35
52 -19 99 -35 106 -35 11 0 58 61 101 131 l22 37 -68 79 c-38 44 -72 85 -76
92 -8 12 69 212 86 222 5 3 59 9 120 12 63 3 114 11 118 17 7 11 33 191 28
195 -2 1 -47 24 -101 50 -54 26 -100 52 -102 58 -2 7 -6 62 -9 122 l-6 111 88
43 c49 24 99 51 111 60 l21 16 -21 95 c-11 52 -26 98 -32 102 -7 4 -28 8 -47
9 -81 2 -84 17 -4 18 l82 1 23 -120z m497 -90 l-1 -45 -7 55 c-5 30 -8 73 -8
95 1 39 1 38 8 -10 5 -27 8 -70 8 -95z m882 100 c6 -10 13 -39 16 -62 7 -53
-6 -68 -65 -74 -50 -4 -61 12 -61 90 l0 55 38 4 c20 2 42 4 49 5 7 1 17 -7 23
-18z m-6900 -115 l0 -75 -43 0 c-54 0 -67 13 -67 68 0 66 13 82 65 82 l45 0 0
-75z m6985 -14 c3 -5 1 -12 -5 -16 -5 -3 -10 0 -11 7 0 10 -2 10 -6 1 -2 -7
-9 -13 -14 -13 -4 0 -6 7 -3 15 7 17 30 20 39 6z m-7141 -38 c3 -8 1 -11 -4
-8 -15 9 -12 -8 6 -33 8 -12 11 -22 6 -22 -5 0 -12 -9 -15 -20 -4 -16 -14 -20
-45 -20 -23 0 -44 5 -47 10 -3 6 2 10 13 10 15 0 18 5 15 24 -4 20 0 25 18 28
17 2 23 9 22 24 -2 23 23 29 31 7z m7069 -33 c6 -23 5 -46 -3 -70 -11 -34 -14
-36 -58 -35 -41 0 -48 3 -56 26 -5 14 -6 47 -2 73 l7 47 52 -3 c49 -3 51 -4
60 -38z m57 25 c0 -8 5 -15 10 -15 6 0 10 5 10 10 0 6 7 10 15 10 17 0 19 -9
6 -29 -6 -10 -13 -10 -29 -2 -21 11 -37 41 -22 41 6 0 10 -7 10 -15z m-7487
-39 c7 -18 -1 -26 -25 -26 -18 0 -25 20 -11 33 11 12 31 8 36 -7z m519 -61
c10 -87 6 -95 -51 -95 -44 0 -48 2 -59 33 -30 82 -2 129 73 124 29 -2 30 -4
37 -62z m-151 -67 l23 -31 -20 -36 c-16 -31 -25 -36 -58 -39 -33 -3 -43 1 -62
25 -28 34 -29 46 -7 84 15 25 24 29 59 29 36 0 46 -5 65 -32z m7026 6 c15 -4
24 -16 28 -38 7 -35 -10 -90 -24 -82 -5 4 -11 0 -13 -6 -3 -7 -8 6 -11 30 l-7
43 -24 -23 c-13 -13 -26 -32 -29 -43 -3 -11 -5 6 -6 37 0 31 2 63 5 72 6 16
41 21 81 10z m-6867 -130 l0 -75 -52 3 -53 3 -9 47 c-6 33 -6 56 2 73 10 22
18 25 62 25 l50 0 0 -76z m-322 27 c20 -36 21 -40 6 -69 -21 -43 -38 -53 -32
-19 3 15 1 24 -3 21 -5 -3 -9 -1 -9 4 0 6 -8 8 -19 5 -10 -3 -33 3 -51 12 -26
13 -29 19 -19 31 6 8 8 14 4 14 -20 0 20 29 43 32 15 2 34 4 43 5 9 1 25 -15
37 -36z m6339 -23 c-3 -7 -5 -2 -5 12 0 14 2 19 5 13 2 -7 2 -19 0 -25z
m-6168 -47 c25 -35 26 -54 4 -92 -15 -25 -23 -29 -63 -29 -41 0 -47 3 -63 33
-33 60 1 117 70 117 24 0 37 -7 52 -29z m-243 -23 c9 -13 -1 -19 -19 -12 -24
9 -30 33 -6 27 11 -3 22 -10 25 -15z m31 2 c-1 -11 -5 -20 -9 -20 -10 0 -10 4
-2 24 8 22 13 20 11 -4z m1173 -264 c17 -90 62 -273 87 -355 4 -14 3 -14 -5
-1 -10 16 -55 174 -73 255 -25 118 -39 216 -43 300 l-5 90 9 -89 c6 -49 19
-139 30 -200z m5197 207 c-3 -10 -5 -4 -5 12 0 17 2 24 5 18 2 -7 2 -21 0 -30z
m-5994 -45 c2 -35 2 -66 -2 -70 -10 -10 -81 -17 -75 -7 3 5 1 9 -4 9 -14 0
-30 50 -25 80 6 46 11 50 56 50 l45 0 5 -62z m6804 6 c-3 -3 -12 -4 -19 -1 -8
3 -5 6 6 6 11 1 17 -2 13 -5z m-820 -71 c-3 -10 -5 -4 -5 12 0 17 2 24 5 18 2
-7 2 -21 0 -30z m816 30 c-7 -2 -21 -2 -30 0 -10 3 -4 5 12 5 17 0 24 -2 18
-5z m37 -38 c0 -8 -4 -15 -10 -15 -5 0 -7 7 -4 15 4 8 8 15 10 15 2 0 4 -7 4
-15z m-863 -47 c-3 -7 -5 -2 -5 12 0 14 2 19 5 13 2 -7 2 -19 0 -25z m-17 -98
c-7 -33 -15 -59 -17 -56 -2 2 1 31 8 65 7 33 15 58 17 56 3 -2 -1 -32 -8 -65z
m800 26 c0 -2 -9 -6 -20 -9 -11 -3 -20 -1 -20 4 0 5 9 9 20 9 11 0 20 -2 20
-4z m37 -12 c-3 -3 -12 -4 -19 -1 -8 3 -5 6 6 6 11 1 17 -2 13 -5z m-42 -23
c-3 -5 1 -15 8 -23 8 -7 17 -20 20 -28 4 -9 6 -5 6 10 -2 44 1 50 19 50 9 0
13 -4 7 -8 -5 -4 -11 -20 -12 -37 -1 -16 -10 -35 -18 -41 -12 -9 -13 -13 -3
-17 9 -4 8 -6 -4 -6 -29 -2 -47 10 -41 27 6 13 8 13 15 -4 6 -14 7 -9 5 16 -2
19 -7 43 -12 53 -4 11 -3 17 5 17 6 0 9 -4 5 -9z m-45 -61 c-5 -22 -8 -27 -9
-13 -1 21 9 56 14 51 2 -2 0 -19 -5 -38z m-6656 -27 c4 -21 9 -51 12 -68 l5
-30 -16 34 c-8 18 -15 46 -15 61 0 22 -6 30 -22 33 -21 4 -20 4 3 6 23 1 28
-4 33 -36z m5883 -5 c-3 -7 -5 -2 -5 12 0 14 2 19 5 13 2 -7 2 -19 0 -25z
m-5957 12 c0 -5 -4 -10 -10 -10 -5 0 -10 5 -10 10 0 6 5 10 10 10 6 0 10 -4
10 -10z m48 -26 c2 -42 1 -41 -21 4 -14 30 -14 32 2 32 13 0 18 -9 19 -36z
m-30 4 c-1 -7 4 -24 11 -36 16 -29 9 -38 -13 -17 -12 12 -16 13 -16 3 0 -10
-3 -9 -10 2 -13 20 -13 43 0 35 6 -3 10 1 10 9 0 9 5 16 10 16 6 0 10 -6 8
-12z m5913 -88 c-11 -40 -23 -76 -27 -79 -4 -3 -4 3 -1 14 3 11 13 48 23 83 9
34 19 61 21 59 2 -3 -5 -37 -16 -77z m-5861 8 c0 -5 -16 -8 -35 -8 -19 0 -35
4 -35 8 0 5 14 7 30 4 26 -4 29 -2 24 14 -5 16 -4 16 5 4 6 -8 11 -18 11 -22z
m37 -50 c6 -7 15 -37 20 -66 10 -52 10 -54 -14 -63 -32 -12 -56 -12 -48 1 3 5
0 7 -8 4 -17 -6 -37 42 -37 89 0 22 4 28 16 23 8 -3 12 -2 9 3 -3 5 5 12 17
14 13 2 26 5 29 6 4 0 11 -5 16 -11z m6592 -51 c-2 -2 -12 -9 -21 -16 -15 -11
-18 -11 -18 1 0 7 10 14 21 15 12 1 20 1 18 0z m-5770 -72 c0 -5 -4 -3 -9 5
-5 8 -9 22 -9 30 0 16 17 -16 18 -35z m5790 31 c6 -7 9 -22 5 -32 -3 -11 1 -9
10 6 21 34 19 13 -3 -34 -11 -24 -21 -34 -26 -27 -4 7 -4 18 -1 26 3 8 1 17
-4 20 -12 8 -13 55 -1 55 5 0 14 -6 20 -14z m-54 -73 c-8 -17 -8 -17 -12 0 -3
9 -9 14 -15 10 -8 -4 -9 0 -4 13 5 10 11 28 14 39 5 17 7 15 15 -12 5 -18 6
-40 2 -50z m-6503 -20 c6 -16 14 -45 18 -65 7 -35 5 -38 -23 -48 -44 -15 -45
-14 -67 34 -26 58 -26 84 3 96 39 16 57 11 69 -17z m5667 -62 c-18 -39 -33
-70 -35 -68 -2 2 10 36 28 75 17 39 33 70 35 68 2 -2 -10 -36 -28 -75z m-4825
-61 c3 -14 -5 -1 -19 29 -14 29 -25 56 -25 60 1 11 37 -63 44 -89z m5686 86
c0 -3 -4 -8 -10 -11 -5 -3 -10 -1 -10 4 0 6 5 11 10 11 6 0 10 -2 10 -4z
m-6446 -190 c5 -21 3 -26 -11 -26 -15 0 -16 2 -3 10 12 8 12 10 -5 11 -11 0
-15 3 -8 5 7 3 9 12 6 20 -4 12 -9 10 -24 -7 -20 -23 -26 -44 -10 -34 5 3 12
1 15 -4 3 -5 -3 -11 -14 -14 -13 -3 -20 0 -20 9 0 8 -6 14 -12 14 -10 0 -10 2
0 9 11 7 11 9 -2 14 -9 4 -16 14 -16 22 0 9 5 13 10 10 6 -3 10 2 10 11 0 10
3 14 8 10 4 -4 7 -13 7 -18 0 -6 6 -13 14 -16 10 -3 11 2 6 18 -5 15 -4 20 4
16 6 -4 11 -2 11 3 0 6 -5 11 -11 11 -5 0 -7 5 -3 11 7 12 36 -39 48 -85z
m5515 15 c-17 -34 -34 -60 -36 -57 -2 2 11 31 29 64 18 33 35 59 36 57 2 -2
-11 -31 -29 -64z m-4719 18 c12 -23 20 -43 18 -45 -3 -2 -14 17 -26 41 -27 56
-20 60 8 4z m5525 -40 c-3 -3 7 -16 21 -28 14 -12 22 -26 19 -31 -9 -15 -51
-12 -65 5 -7 8 -17 12 -24 8 -6 -3 -3 3 7 15 11 11 16 25 13 31 -4 5 2 9 13 8
11 0 18 -4 16 -8z m45 1 c0 -5 -5 -10 -11 -10 -5 0 -7 5 -4 10 3 6 8 10 11 10
2 0 4 -4 4 -10z m-5476 -134 c16 -27 24 -46 18 -42 -12 7 -82 130 -82 143 0 8
12 -10 64 -101z m-864 22 c0 -10 2 -10 9 0 6 11 10 10 15 -3 5 -14 2 -16 -19
-11 -18 5 -25 2 -25 -9 0 -8 5 -15 11 -15 5 0 7 -4 4 -10 -3 -5 2 -10 11 -10
22 0 10 -13 -16 -17 -19 -3 -23 15 -14 65 5 23 24 31 24 10z m4227 -4 c-3 -3
-12 -4 -19 -1 -8 3 -5 6 6 6 11 1 17 -2 13 -5z m-4263 -40 c3 -8 2 -12 -4 -9
-6 3 -10 10 -10 16 0 14 7 11 14 -7z m966 -85 c15 -28 5 -23 -15 7 -9 15 -12
23 -6 20 6 -4 16 -16 21 -27z m-903 5 c-3 -3 -12 -4 -19 -1 -8 3 -5 6 6 6 11
1 17 -2 13 -5z m943 -64 c12 -16 19 -30 16 -30 -2 0 -14 14 -26 30 -12 17 -19
30 -16 30 2 0 14 -13 26 -30z m1315 -96 c4 -18 17 -23 97 -35 51 -8 81 -15 66
-17 -26 -3 -167 13 -173 20 -1 2 -5 32 -8 68 -6 57 -5 60 4 25 6 -22 12 -49
14 -61z m-2215 82 c0 -2 -7 -7 -16 -10 -8 -3 -12 -2 -9 4 6 10 25 14 25 6z
m962 -68 c12 -17 17 -28 10 -25 -6 4 -21 22 -34 39 -12 17 -17 28 -10 25 6 -4
21 -22 34 -39z m2958 -8 c0 -44 3 -42 -124 -55 -83 -8 -66 2 24 15 77 11 90
19 90 58 0 12 2 22 5 22 3 0 5 -18 5 -40z m2080 -74 c0 -3 -4 -8 -10 -11 -5
-3 -10 -1 -10 4 0 6 5 11 10 11 6 0 10 -2 10 -4z m33 -11 c4 -8 1 -17 -5 -21
-7 -4 -8 -3 -4 4 4 7 2 12 -4 12 -6 0 -8 5 -5 10 8 14 12 13 18 -5z m-5878 -5
c-3 -6 1 -13 9 -16 9 -3 16 -12 16 -20 0 -8 4 -14 8 -14 7 0 42 -52 42 -64 0
-3 -15 -13 -32 -22 -31 -16 -32 -16 -19 0 19 22 8 31 -13 10 -9 -9 -19 -14
-23 -11 -3 3 6 17 20 31 14 14 28 22 31 18 4 -3 4 0 1 9 -4 10 -16 14 -40 11
-21 -3 -35 0 -35 7 0 6 9 11 20 11 11 0 20 5 20 10 0 6 -7 10 -15 10 -13 0
-14 4 -5 20 6 11 13 20 16 20 3 0 2 -5 -1 -10z m890 -8 c-3 -3 -11 0 -18 7 -9
10 -8 11 6 5 10 -3 15 -9 12 -12z m193 -207 c20 -22 26 -31 12 -20 -14 11 -27
23 -30 27 -4 4 -40 43 -81 85 -42 43 -79 85 -83 93 -7 14 87 -82 182 -185z
m-1098 120 c-7 -9 -15 -13 -17 -11 -7 7 7 26 19 26 6 0 6 -6 -2 -15z m4860 -8
c0 -2 -17 -19 -37 -38 l-38 -34 34 38 c33 34 41 42 41 34z m-4752 -58 c-11
-17 -10 -22 5 -30 22 -13 22 -26 -2 -39 -13 -7 -22 -7 -26 0 -3 6 4 14 17 19
13 6 18 10 11 10 -6 1 -18 4 -26 7 -10 3 -17 -2 -20 -13 -4 -15 -5 -14 -6 4
-1 12 10 30 25 42 33 26 37 26 22 0z m65 -64 c4 -8 3 -16 -1 -19 -4 -3 -9 4
-9 15 -2 23 3 25 10 4z m4427 -47 c18 -13 71 -72 117 -133 46 -60 104 -137
129 -169 33 -43 42 -62 34 -70 -8 -8 -16 -4 -30 14 -10 14 -72 94 -137 179
-100 131 -124 156 -157 168 -54 18 -98 4 -177 -55 -35 -27 -92 -67 -126 -90
-72 -48 -93 -82 -93 -145 0 -49 14 -72 172 -290 43 -59 78 -112 78 -117 0 -32
-37 5 -111 110 -46 66 -103 148 -126 181 -38 54 -43 66 -43 117 0 45 6 66 25
94 22 33 197 164 279 210 46 25 125 23 166 -4z m-3040 -99 c173 -116 196 -145
188 -230 -4 -41 -23 -75 -123 -226 -139 -210 -123 -189 -136 -176 -7 7 22 59
99 174 60 90 114 174 120 186 26 49 6 129 -41 162 -198 142 -253 175 -303 179
-48 4 -54 2 -92 -32 -22 -21 -55 -60 -73 -89 -18 -29 -58 -86 -89 -127 -31
-41 -64 -87 -73 -102 -18 -28 -54 -40 -44 -14 3 7 34 53 69 102 36 49 90 126
122 171 65 92 112 123 183 123 37 0 61 -13 193 -101z m4057 77 c-4 -9 0 -12
12 -9 11 3 21 -4 28 -20 12 -27 -1 -55 -41 -88 -18 -15 -22 -15 -47 0 -15 8
-25 19 -22 24 3 5 13 1 23 -8 11 -10 25 -15 32 -12 8 4 7 6 -4 6 -22 1 -24 21
-3 21 9 0 15 9 15 23 -1 20 -2 21 -14 5 -11 -15 -15 -16 -32 -3 -15 11 -16 14
-4 15 8 0 21 14 28 30 13 29 40 44 29 16z m-1039 -25 c12 -9 78 -90 146 -181
97 -129 121 -168 113 -179 -9 -11 -14 -9 -26 9 -9 13 -37 50 -62 84 -26 34
-74 97 -106 142 -106 147 -115 148 -287 29 -70 -49 -132 -97 -138 -108 -16
-31 -3 -92 29 -134 81 -104 197 -269 201 -286 10 -38 -23 -11 -76 64 -77 107
-78 109 -123 169 -71 96 -83 137 -57 195 12 26 259 209 294 218 27 6 65 -3 92
-22z m-4338 -1 c-18 -12 -30 -13 -30 -2 0 4 10 9 22 9 18 2 20 0 8 -7z m1290
-91 c67 -45 133 -96 147 -113 42 -51 31 -83 -102 -282 -103 -154 -131 -188
-138 -162 -1 4 50 85 113 180 125 190 135 218 90 262 -54 51 -253 176 -281
176 -37 0 -66 -31 -187 -204 -94 -134 -124 -168 -138 -154 -10 10 248 361 276
376 47 25 92 9 220 -79z m-1345 51 c7 -24 18 -25 34 -6 16 19 61 14 73 -9 8
-13 5 -23 -15 -42 l-25 -26 -29 21 c-30 22 -70 82 -54 82 5 0 13 -9 16 -20z
m30 10 c3 -5 1 -10 -4 -10 -6 0 -11 5 -11 10 0 6 2 10 4 10 3 0 8 -4 11 -10z
m4368 -55 c160 -208 217 -286 217 -300 0 -24 -19 -18 -38 13 -21 36 -69 92
-77 92 -9 0 -240 -167 -254 -184 -10 -12 -5 -26 28 -74 36 -54 41 -72 21 -72
-4 0 -45 53 -91 118 -46 64 -100 140 -121 167 -69 91 -69 91 186 272 49 35 83
27 129 -32z m-3071 -56 c65 -44 122 -88 128 -98 17 -32 17 -31 -195 -339 -51
-74 -69 -55 -21 21 20 31 36 60 36 65 0 5 -56 46 -125 92 -69 45 -124 88 -122
94 7 17 18 12 151 -79 69 -47 131 -85 138 -85 20 0 -18 31 -142 115 -63 43
-117 80 -119 82 -3 2 0 8 7 15 8 8 21 3 49 -18 40 -31 120 -84 190 -128 23
-14 44 -22 47 -18 3 5 -39 37 -92 72 -53 36 -116 79 -139 97 -51 39 -54 40
-72 11 -38 -63 -128 -177 -138 -178 -23 0 -14 20 40 93 30 40 84 115 121 167
38 52 75 98 84 102 27 11 51 -1 174 -83z m4028 21 c0 -6 -9 -5 -20 2 -11 7
-20 16 -20 21 0 4 9 3 20 -3 11 -6 20 -15 20 -20z m-5206 -2 c-6 -20 -5 -21
10 -9 14 12 16 11 14 -10 -2 -16 2 -23 10 -21 8 1 11 -2 7 -9 -5 -8 -10 -8
-18 0 -18 18 -23 13 -21 -20 2 -34 -15 -35 -31 -1 -5 12 -17 22 -25 23 -10 0
-11 2 -2 6 6 2 10 9 6 14 -5 9 33 48 49 49 5 0 5 -10 1 -22z m5216 -26 c0 -5
-7 -17 -15 -28 -14 -18 -14 -17 -4 9 12 27 19 34 19 19z m-5155 -42 c-3 -5
-12 -10 -18 -10 -7 0 -6 4 3 10 19 12 23 12 15 0z m15 -70 c0 -5 -5 -10 -11
-10 -5 0 -7 5 -4 10 3 6 8 10 11 10 2 0 4 -4 4 -10z m3541 -31 c4 -13 25 -80
47 -149 63 -196 105 -348 99 -363 -3 -7 -23 -19 -44 -26 -39 -13 -41 -12 -169
52 -71 36 -176 90 -233 121 -58 31 -106 54 -108 52 -4 -3 49 -214 76 -303 10
-33 -2 -55 -19 -37 -12 14 -113 395 -106 402 2 2 73 -34 158 -80 291 -159 356
-190 388 -183 17 4 30 10 30 15 0 11 -82 281 -124 410 -19 57 -32 108 -29 113
9 14 26 2 34 -24z m-3521 12 c0 -5 -7 -12 -16 -15 -14 -5 -15 -4 -4 9 14 17
20 19 20 6z m1700 -46 c80 -24 165 -49 190 -55 119 -29 172 -82 172 -171 0
-64 -38 -174 -70 -205 -25 -22 -78 -44 -109 -44 -7 0 -13 -2 -13 -4 0 -2 23
-43 51 -91 28 -47 48 -89 44 -93 -9 -9 -37 27 -96 126 -28 45 -55 80 -60 76
-6 -4 -6 -10 -1 -17 6 -7 31 -47 56 -90 41 -70 44 -78 24 -75 -15 2 -36 30
-74 98 -29 52 -58 101 -64 108 -28 31 -17 -1 31 -92 47 -90 56 -117 30 -102
-5 4 -36 54 -68 111 -55 100 -60 106 -98 115 -71 18 -89 25 -84 35 6 15 21 12
159 -29 138 -42 213 -45 250 -11 28 26 60 118 60 175 0 57 -14 94 -45 114 -19
12 -434 136 -457 136 -5 0 -7 -4 -3 -9 5 -10 53 -25 276 -90 195 -56 209 -65
209 -141 0 -61 -34 -155 -63 -175 -12 -8 -37 -15 -57 -15 -53 0 -320 80 -320
97 0 18 -2 18 145 -27 149 -46 195 -50 224 -19 38 40 54 164 26 193 -9 9 -35
20 -58 27 -23 6 -118 33 -210 60 -162 48 -187 51 -187 26 0 -6 -13 -54 -29
-107 -17 -52 -46 -148 -66 -212 -24 -80 -41 -118 -51 -118 -17 0 -18 18 -4 56
6 14 39 120 75 234 84 269 81 264 103 255 9 -3 82 -26 162 -50z m1768 18 c11
-29 112 -346 133 -421 23 -80 13 -77 -287 82 -152 81 -279 145 -281 142 -2 -2
22 -105 54 -229 53 -207 60 -258 32 -230 -5 5 -32 99 -60 208 -28 109 -57 214
-65 233 -18 43 -18 72 0 72 13 0 124 -57 413 -213 141 -77 169 -88 161 -64 -3
6 -20 62 -38 122 -18 61 -48 154 -66 208 -19 55 -34 103 -34 108 0 21 28 7 38
-18z m-3440 -29 c-4 -3 -12 5 -18 18 -12 22 -12 22 6 6 10 -10 15 -20 12 -24z
m3446 -166 c36 -111 64 -203 63 -204 -2 -3 -237 122 -420 222 -99 55 -143 66
-153 39 -7 -18 1 -52 64 -285 67 -249 67 -250 48 -250 -9 0 -19 15 -25 38 -56
216 -87 330 -107 401 -31 108 -31 115 9 129 48 17 73 15 115 -12 74 -46 404
-218 409 -212 3 3 -17 75 -46 160 -28 86 -51 160 -51 166 0 5 6 10 14 10 10 0
35 -64 80 -202z m1400 147 c11 -8 16 -18 12 -22 -4 -5 -13 0 -20 10 -14 17
-27 23 -25 10 3 -17 -2 -24 -11 -18 -8 5 -7 11 1 21 14 17 19 17 43 -1z
m-4704 -25 c0 -11 -30 -21 -41 -15 -13 8 13 33 28 28 7 -3 13 -9 13 -13z
m4653 -12 c3 -10 13 -11 46 -2 28 8 41 8 38 1 -2 -6 -14 -12 -27 -14 -31 -5
-38 -12 -20 -23 8 -6 10 -10 4 -10 -5 0 -19 -8 -30 -18 -18 -16 -20 -16 -47
10 -29 29 -28 35 3 18 15 -8 18 -6 16 14 -1 20 -4 22 -16 13 -13 -10 -13 -10
-1 6 16 20 28 22 34 5z m-3288 -105 c-113 -365 -108 -354 -125 -337 -5 5 2 46
20 104 102 336 103 340 120 340 16 0 14 -12 -15 -107z m-1343 75 c-5 -21 -4
-22 13 -8 17 14 17 14 4 -7 -16 -26 -25 -29 -32 -10 -4 9 -7 9 -15 -1 -5 -7
-16 -10 -25 -6 -21 8 -21 11 -2 31 13 13 18 13 32 1 15 -11 16 -11 10 5 -4 11
-2 17 7 17 10 0 12 -7 8 -22z m1608 -39 c63 -17 125 -37 138 -45 25 -16 28
-46 10 -108 -23 -81 -48 -90 -152 -57 -34 11 -94 30 -133 41 -42 13 -73 27
-73 35 0 9 37 1 128 -26 168 -51 176 -51 197 5 22 56 17 87 -15 97 -170 50
-284 79 -290 72 -4 -4 -19 -48 -34 -98 -71 -239 -91 -298 -103 -302 -23 -9
-23 1 -3 63 10 32 40 129 66 214 25 85 48 158 50 162 3 4 26 0 52 -8 26 -8 99
-28 162 -45z m970 -4 c0 -13 -23 -15 -147 -15 -273 -1 -295 -6 -334 -80 -16
-30 -19 -58 -19 -190 0 -176 9 -208 71 -243 32 -17 49 -18 247 -13 175 5 212
4 212 -7 0 -11 -43 -15 -210 -21 -236 -8 -253 -4 -309 60 -39 44 -43 70 -39
255 3 153 4 156 31 192 43 57 58 61 222 68 283 10 275 10 275 -6z m-2505 -13
c-3 -3 -11 0 -18 7 -9 10 -8 11 6 5 10 -3 15 -9 12 -12z m-45 -27 c-13 -15
-12 -16 30 -27 9 -3 10 -7 3 -11 -6 -4 -21 1 -33 11 -20 16 -21 21 -9 40 8 12
15 18 17 12 2 -6 -2 -17 -8 -25z m4502 0 c3 -13 1 -22 -3 -19 -9 5 -13 44 -5
44 2 0 6 -11 8 -25z m-4442 -5 c0 -5 -9 -8 -20 -7 -20 1 -25 8 -14 20 8 7 34
-3 34 -13z m2495 -5 c0 -6 -75 -13 -190 -17 -104 -5 -200 -10 -212 -13 -45
-10 -55 -53 -51 -217 l3 -150 30 -25 29 -26 208 7 c176 6 208 5 208 -7 0 -21
-386 -33 -433 -13 -66 28 -72 42 -75 205 -6 240 4 253 197 262 178 8 286 6
286 -6z m1892 -27 c-3 -8 -6 -5 -6 6 -1 11 2 17 5 13 3 -3 4 -12 1 -19z m53
-8 c0 -5 -2 -10 -4 -10 -3 0 -8 5 -11 10 -3 6 -1 10 4 10 6 0 11 -4 11 -10z
m-4417 -7 c3 -5 -6 -9 -20 -10 -19 -1 -22 1 -12 8 17 11 26 11 32 2z m2477 -6
c0 -11 -41 -15 -192 -21 -106 -4 -197 -12 -203 -17 -6 -6 -10 -68 -10 -143 0
-102 4 -137 15 -151 13 -16 30 -17 207 -10 166 6 193 5 193 -8 0 -12 -32 -15
-192 -19 -106 -3 -203 -2 -216 3 -34 13 -42 48 -42 188 0 114 2 131 21 154 20
26 22 27 167 30 81 1 171 4 200 5 38 1 52 -2 52 -11z m1856 -4 c7 -10 14 -27
14 -38 0 -25 -35 -57 -64 -59 -13 -1 -20 -8 -18 -16 2 -8 0 -11 -5 -7 -4 5 -8
16 -8 25 0 10 -7 16 -17 16 -25 -2 -22 8 7 36 14 13 25 18 25 12 0 -7 4 -12 9
-12 5 0 8 8 7 18 -1 11 5 16 18 14 14 -3 17 1 13 12 -8 21 3 20 19 -1z m-4241
-13 c3 -5 1 -10 -4 -10 -6 0 -11 5 -11 10 0 6 2 10 4 10 3 0 8 -4 11 -10z m55
-51 c0 -18 -18 -9 -23 12 -4 16 -3 18 9 8 8 -6 14 -15 14 -20z m-70 11 c0 -5
-5 -10 -11 -10 -5 0 -7 5 -4 10 3 6 8 10 11 10 2 0 4 -4 4 -10z m47 -36 c-3
-3 -12 -4 -19 -1 -8 3 -5 6 6 6 11 1 17 -2 13 -5z m151 -47 l33 -25 -29 -33
-30 -33 -41 27 c-29 19 -39 32 -35 44 5 15 4 15 -5 3 -21 -30 -22 0 -1 34 21
34 22 35 48 22 15 -8 42 -26 60 -39z m3919 23 c17 13 17 13 2 -3 -16 -18 -54
-13 -43 5 4 6 10 5 14 -3 7 -10 12 -10 27 1z m-1722 -10 c10 -16 -9 -18 -197
-23 -147 -4 -178 -3 -178 9 0 10 27 14 128 17 70 1 153 4 184 5 31 1 60 -3 63
-8z m5 -55 c0 -13 -20 -15 -122 -15 -68 0 -153 -3 -190 -7 -58 -5 -68 -4 -68
10 0 17 32 20 278 25 85 2 102 -1 102 -13z m-2101 -28 c19 -12 42 -27 52 -33
17 -10 16 -12 -3 -42 -22 -36 -26 -37 -59 -19 -74 40 -82 54 -53 95 19 27 21
27 63 -1z m2101 -16 c0 -14 -56 -20 -220 -22 -105 -1 -155 2 -158 9 -2 8 26
12 85 15 197 7 293 7 293 -2z m1448 -65 c9 -20 7 -25 -14 -37 -21 -11 -29 -11
-45 0 -19 11 -20 10 -14 -8 5 -16 3 -20 -9 -15 -9 3 -16 1 -16 -6 0 -6 -4 -8
-10 -5 -20 12 -9 31 38 62 26 18 50 32 53 33 3 0 11 -11 17 -24z m-3398 -11
c27 -13 51 -29 54 -34 3 -5 -2 -23 -11 -40 -15 -26 -22 -31 -43 -26 -29 8 -90
52 -90 66 0 5 7 9 16 9 8 0 12 5 9 10 -7 11 0 40 10 40 3 0 28 -11 55 -25z
m3425 -35 c3 -5 -1 -10 -10 -10 -9 0 -13 5 -10 10 3 6 8 10 10 10 2 0 7 -4 10
-10z m-3223 -70 c10 0 9 -5 -14 -52 -10 -21 -18 -26 -33 -22 -30 8 -68 26 -87
42 -16 14 -16 17 4 52 l22 37 48 -28 c27 -16 54 -29 60 -29z m3128 21 c0 -6
-4 -12 -8 -15 -5 -3 -9 1 -9 9 0 8 4 15 9 15 4 0 8 -4 8 -9z m-3035 -63 c25
-12 45 -26 45 -31 0 -4 4 -6 9 -3 14 9 2 -26 -17 -52 l-17 -22 -53 25 c-29 14
-52 32 -52 40 0 15 28 65 36 65 2 0 24 -10 49 -22z m2813 -3 c-3 -3 -9 2 -12
12 -6 14 -5 15 5 6 7 -7 10 -15 7 -18z m-28 10 c0 -2 -15 -8 -32 -13 -29 -7
-33 -12 -30 -36 4 -33 -21 -32 -26 1 -2 14 6 25 30 36 32 16 58 22 58 12z
m-18 -37 c-9 -9 -15 -9 -24 0 -9 9 -7 12 12 12 19 0 21 -3 12 -12z m-102 -35
c0 -13 -3 -13 -15 -3 -8 7 -12 16 -9 21 8 13 24 1 24 -18z m-2528 -5 c14 -14
23 -17 26 -10 3 9 9 9 25 1 12 -7 24 -13 25 -15 8 -6 -23 -74 -34 -74 -22 0
-44 12 -39 21 3 5 -7 11 -22 15 -15 4 -33 11 -40 16 -15 12 -5 38 14 38 13 0
13 3 3 15 -21 25 16 19 42 -7z m2498 -18 c-20 -13 -33 -13 -25 0 3 6 14 10 23
10 15 0 15 -2 2 -10z m-2302 -40 c36 -14 37 -18 18 -65 -15 -36 -26 -37 -88
-12 -35 15 -39 27 -27 70 10 39 10 39 97 7z m2090 -35 c0 -14 -6 -25 -14 -25
-8 0 -11 6 -7 16 3 9 0 20 -8 25 -11 7 -9 9 7 9 16 0 22 -6 22 -25z m-1973 0
c39 -14 39 -14 10 -15 -24 0 -27 -2 -15 -11 11 -8 7 -9 -17 -5 -21 4 -33 1
-33 -6 0 -6 -2 -9 -5 -6 -7 7 5 58 14 58 3 0 24 -7 46 -15z m1913 -9 c2 -11 0
-16 -6 -12 -6 3 -13 2 -17 -4 -9 -15 -25 -12 -19 4 4 10 -2 12 -23 10 l-28 -4
30 15 c37 18 59 15 63 -9z m119 -2 c-3 -3 -12 -4 -19 -1 -8 3 -5 6 6 6 11 1
17 -2 13 -5z m-184 -24 c19 -17 -10 -16 -38 2 l-30 19 30 -7 c17 -4 34 -10 38
-14z m-1731 -4 c5 3 30 3 55 -1 l45 -7 -6 -41 c-8 -45 -19 -57 -54 -57 -28 0
-82 27 -82 41 0 6 4 7 10 4 6 -3 7 1 4 10 -3 8 -3 27 1 43 4 15 10 21 12 14 3
-6 9 -9 15 -6z m1794 -44 c-10 -11 -16 -12 -16 -4 0 7 5 12 10 12 6 0 11 10
11 23 1 18 2 19 6 3 3 -10 -2 -26 -11 -34z m71 42 c-3 -3 -12 -4 -19 -1 -8 3
-5 6 6 6 11 1 17 -2 13 -5z m-1662 -27 c34 -8 50 -17 49 -27 -4 -54 0 -51 -69
-48 -70 3 -74 8 -59 66 7 25 11 26 79 9z m1283 -42 c0 -16 -1 -16 -5 -3 -2 9
-10 15 -18 12 -7 -3 -16 -1 -20 5 -3 6 -21 11 -38 12 l-32 1 28 8 c16 5 35 6
42 4 7 -3 16 0 21 7 9 15 23 -14 22 -46z m257 25 c3 -5 1 -10 -4 -10 -6 0 -11
5 -11 10 0 6 2 10 4 10 3 0 8 -4 11 -10z m-1380 -10 c14 -6 7 -7 -22 -3 -41 5
-42 5 -37 -21 3 -19 0 -26 -12 -26 -11 0 -14 5 -10 16 3 9 6 22 6 30 0 16 43
18 75 4z m43 -44 c-2 -36 -5 -42 -20 -38 -28 7 -32 23 -9 29 12 3 21 13 20 22
-2 21 0 31 6 31 2 0 4 -20 3 -44z m829 38 c-3 -3 -12 -4 -19 -1 -8 3 -5 6 6 6
11 1 17 -2 13 -5z m203 -4 c0 -5 -7 -7 -15 -4 -8 4 -15 8 -15 10 0 2 7 4 15 4
8 0 15 -4 15 -10z m-877 -7 c9 -16 -6 -73 -19 -73 -8 0 -11 -6 -8 -15 5 -11
-1 -15 -22 -14 -17 1 -22 3 -11 6 9 2 17 9 17 15 0 6 -7 7 -17 3 -46 -19 -58
-12 -61 36 l-3 46 60 2 c33 1 62 -2 64 -6z m507 -18 c0 -14 -2 -25 -4 -25 -2
0 -6 11 -8 25 -3 14 -1 25 3 25 5 0 9 -11 9 -25z m40 21 c0 -2 -7 -6 -15 -10
-8 -3 -15 -1 -15 4 0 6 7 10 15 10 8 0 15 -2 15 -4z m27 -28 c-3 -7 -5 -2 -5
12 0 14 2 19 5 13 2 -7 2 -19 0 -25z m-797 12 c0 -5 -4 -10 -10 -10 -5 0 -10
5 -10 10 0 6 5 10 10 10 6 0 10 -4 10 -10z m340 -1 c0 -5 -11 -9 -24 -9 -14 0
-32 -7 -40 -16 -15 -14 -16 -13 -16 9 0 22 4 25 40 25 22 0 40 -3 40 -9z m185
1 c3 -5 1 -10 -4 -10 -6 0 -11 5 -11 10 0 6 2 10 4 10 3 0 8 -4 11 -10z m305
-11 c0 -11 -4 -17 -10 -14 -5 3 -10 13 -10 21 0 8 5 14 10 14 6 0 10 -9 10
-21z m62 -24 c2 -21 10 -31 28 -36 20 -6 21 -7 5 -8 -11 0 -25 3 -31 7 -14 9
-34 68 -26 76 10 10 20 -7 24 -39z m258 10 c-7 -8 -17 -15 -22 -15 -6 0 -5 7
2 15 7 8 17 15 22 15 6 0 5 -7 -2 -15z m-226 -11 c18 -7 12 -24 -10 -24 -8 0
-14 7 -14 15 0 17 2 18 24 9z m-1047 -10 c-3 -3 -12 -4 -19 -1 -8 3 -5 6 6 6
11 1 17 -2 13 -5z m626 -31 c-7 -2 -21 -2 -30 0 -10 3 -4 5 12 5 17 0 24 -2
18 -5z m7 -19 c0 -2 -18 -4 -40 -4 -22 0 -40 3 -40 8 0 4 18 6 40 4 22 -2 40
-6 40 -8z m4533 -829 c22 -53 111 -138 162 -155 19 -6 35 -15 35 -19 0 -5 -20
-16 -45 -25 -52 -20 -137 -108 -156 -161 -7 -19 -15 -35 -19 -35 -3 0 -13 20
-23 44 -23 55 -101 130 -164 158 l-48 20 45 16 c55 19 151 112 171 165 7 20
15 37 19 37 3 0 13 -20 23 -45z"/>
<path d="M4550 8545 c0 -18 45 -38 69 -32 10 3 8 5 -6 6 -27 1 -30 16 -7 25 9
4 15 9 12 12 -3 2 -17 0 -32 -6 -18 -6 -25 -6 -21 0 3 6 1 10 -4 10 -6 0 -11
-7 -11 -15z"/>
<path d="M3418 8533 c7 -3 16 -2 19 1 4 3 -2 6 -13 5 -11 0 -14 -3 -6 -6z"/>
<path d="M3478 8533 c7 -3 16 -2 19 1 4 3 -2 6 -13 5 -11 0 -14 -3 -6 -6z"/>
<path d="M4380 8569 c0 -5 5 -7 10 -4 6 3 10 8 10 11 0 2 -4 4 -10 4 -5 0 -10
-5 -10 -11z"/>
<path d="M6473 8554 c-8 -8 -9 -15 -3 -19 6 -3 10 -3 11 2 0 4 4 -1 9 -12 5
-13 9 -14 9 -5 0 8 -3 22 -7 31 -6 14 -9 15 -19 3z"/>
<path d="M6455 8480 c4 -6 11 -8 16 -5 14 9 11 15 -7 15 -8 0 -12 -5 -9 -10z"/>
<path d="M3768 8573 c7 -3 16 -2 19 1 4 3 -2 6 -13 5 -11 0 -14 -3 -6 -6z"/>
<path d="M4930 7682 c8 -4 16 -15 17 -26 1 -16 -4 -18 -48 -12 -57 8 -179 -3
-179 -15 0 -5 19 -10 43 -11 42 -1 42 -1 5 -5 -21 -2 -39 -11 -42 -20 -5 -11
-2 -14 10 -9 8 3 46 9 82 12 37 4 70 11 73 17 4 5 21 8 38 5 30 -4 31 -3 31
34 0 33 -3 38 -22 37 -17 0 -19 -2 -8 -7z m-50 -60 c0 -5 -7 -9 -15 -9 -8 0
-12 4 -9 9 3 4 9 8 15 8 5 0 9 -4 9 -8z"/>
<path d="M4860 7676 c0 -2 7 -6 15 -10 8 -3 15 -1 15 4 0 6 -7 10 -15 10 -8 0
-15 -2 -15 -4z"/>
<path d="M4577 7659 c7 -7 15 -10 18 -7 3 3 -2 9 -12 12 -14 6 -15 5 -6 -5z"/>
<path d="M4665 7650 c-27 -7 -27 -8 -5 -8 14 0 39 4 55 8 27 7 27 8 5 8 -14 0
-38 -4 -55 -8z"/>
<path d="M4500 7644 c0 -15 39 -54 54 -54 8 0 27 7 42 15 33 17 19 20 -23 4
-25 -9 -30 -7 -50 18 -13 15 -23 23 -23 17z"/>
<path d="M4695 7601 c-3 -5 -20 -8 -38 -7 -17 2 -23 1 -12 -2 l20 -4 -20 -9
c-13 -6 -6 -6 20 -2 46 7 55 10 55 24 0 12 -17 12 -25 0z"/>
<path d="M5500 7612 c0 -8 -5 -10 -12 -6 -10 5 -10 4 -1 -6 16 -17 35 -9 23
10 -7 11 -10 11 -10 2z"/>
<path d="M4155 7527 c-22 -11 -66 -30 -98 -42 -32 -12 -58 -24 -58 -28 1 -4 1
-13 1 -21 0 -10 8 -13 28 -10 26 4 26 3 6 -9 -12 -6 -19 -17 -17 -24 3 -8 16
-6 46 6 23 10 63 26 88 35 72 26 139 74 139 99 -1 22 -1 22 -12 2 -19 -33 -35
-45 -60 -44 -20 1 -21 2 -3 6 27 7 46 23 39 35 -3 5 -16 2 -30 -6 -34 -23 -51
-20 -29 4 22 25 12 24 -40 -3z m10 -17 c3 -5 -1 -10 -10 -10 -9 0 -13 5 -10
10 3 6 8 10 10 10 2 0 7 -4 10 -10z"/>
<path d="M3911 7427 c-1 -16 3 -26 9 -22 6 3 10 1 10 -5 0 -6 -10 -8 -25 -4
-28 7 -35 -12 -12 -35 10 -10 9 -11 -3 -6 -9 3 -21 19 -27 35 -6 17 -16 30
-22 30 -8 0 21 -85 33 -97 7 -8 76 29 76 40 0 6 -9 30 -19 52 -19 38 -19 39
-20 12z"/>
<path d="M7420 7789 c0 -5 5 -7 10 -4 6 3 10 8 10 11 0 2 -4 4 -10 4 -5 0 -10
-5 -10 -11z"/>
<path d="M7380 7769 c-13 -24 -4 -41 10 -19 10 16 13 40 5 40 -2 0 -9 -9 -15
-21z"/>
<path d="M7410 7755 c0 -8 5 -15 10 -15 6 0 10 7 10 15 0 8 -4 15 -10 15 -5 0
-10 -7 -10 -15z"/>
<path d="M6135 7542 c-6 -4 -19 -18 -30 -32 l-20 -25 21 18 c11 9 26 17 32 17
14 0 25 17 14 24 -4 2 -12 2 -17 -2z"/>
<path d="M6174 7522 c2 -4 -1 -14 -7 -22 -15 -19 -78 -25 -89 -8 -6 10 -8 10
-8 1 0 -7 -8 -13 -17 -13 -14 0 -14 -3 -5 -12 10 -10 15 -10 22 2 8 12 10 12
10 1 0 -9 8 -11 24 -7 14 3 32 3 40 0 15 -6 15 -8 -1 -20 -10 -7 -13 -14 -8
-14 6 0 29 19 50 42 29 31 31 35 8 14 -34 -31 -44 -25 -18 10 17 23 19 34 4
34 -5 0 -8 -3 -5 -8z"/>
<path d="M6326 7457 c2 -7 14 -13 25 -14 21 -2 21 -1 3 12 -24 18 -35 19 -28
2z"/>
<path d="M6437 7399 c7 -7 15 -10 18 -7 3 3 -2 9 -12 12 -14 6 -15 5 -6 -5z"/>
<path d="M6545 7319 c-4 -6 -13 -8 -21 -5 -11 4 -14 -2 -11 -30 4 -37 22 -63
34 -49 5 4 2 10 -4 12 -7 3 -13 9 -13 14 0 5 9 4 19 -3 10 -6 17 -17 14 -24
-5 -13 44 -51 53 -41 3 3 2 20 -1 39 -5 26 -14 37 -37 46 -24 9 -28 15 -23 31
7 22 1 28 -10 10z"/>
<path d="M3313 7415 c-128 -85 -135 -108 -66 -212 69 -105 98 -107 220 -19 51
37 92 74 97 88 19 55 -82 198 -140 198 -19 0 -59 -20 -111 -55z"/>
<path d="M3681 7298 c-1 -9 -12 -30 -26 -45 l-24 -28 -1 24 0 24 -26 -24 c-22
-21 -24 -21 -18 -4 7 18 6 18 -9 6 -9 -7 -14 -17 -11 -22 3 -5 2 -14 -2 -20
-4 -7 -9 -8 -13 -1 -4 7 -13 5 -26 -4 -17 -13 -18 -16 -5 -25 13 -9 12 -10 -3
-5 -10 3 -41 -10 -80 -35 -59 -39 -65 -40 -116 -35 -30 4 -61 12 -68 18 -9 7
-13 7 -13 0 0 -6 6 -13 13 -15 8 -4 8 -8 2 -14 -5 -4 -15 -17 -21 -29 -15 -26
6 -41 74 -54 62 -12 118 13 250 113 83 63 101 82 116 121 10 25 15 52 13 59
-3 7 -6 5 -6 -5z m-51 -102 c0 -2 -7 -7 -16 -10 -8 -3 -12 -2 -9 4 6 10 25 14
25 6z m-66 -51 c-7 -16 -24 -21 -24 -6 0 8 7 13 27 20 1 1 0 -6 -3 -14z"/>
<path d="M3192 7080 c7 -11 17 -20 22 -20 5 0 1 9 -9 20 -10 11 -20 20 -22 20
-2 0 2 -9 9 -20z"/>
<path d="M6806 7185 c-16 -12 -17 -15 -4 -15 9 0 18 7 22 15 7 18 6 18 -18 0z"/>
<path d="M6829 7153 c-13 -21 -27 -39 -31 -41 -11 -5 -10 -22 0 -22 5 0 15 12
22 28 8 15 21 35 29 45 8 9 12 20 9 23 -3 3 -16 -12 -29 -33z"/>
<path d="M6730 7161 c0 -5 6 -12 13 -14 9 -4 8 -8 -3 -16 -20 -14 -33 -14 -24
1 5 7 3 8 -5 3 -14 -8 -14 -8 42 -49 20 -15 37 -23 37 -19 0 13 -14 30 -30 36
-10 4 -8 6 6 6 13 1 24 9 27 22 4 15 2 19 -8 15 -8 -3 -21 1 -29 9 -17 17 -26
19 -26 6z"/>
<path d="M8035 7350 c3 -5 8 -10 11 -10 2 0 4 5 4 10 0 6 -5 10 -11 10 -5 0
-7 -4 -4 -10z"/>
<path d="M6967 7024 l-57 -57 32 -37 c18 -21 36 -39 41 -39 12 -2 8 27 -5 33
-7 3 -4 4 8 1 14 -4 29 4 49 25 16 16 26 33 22 36 -3 3 -17 -6 -32 -21 -14
-16 -28 -25 -32 -22 -3 4 0 7 7 7 7 0 10 3 7 7 -4 3 0 15 10 25 26 29 10 30
-41 3 -59 -31 -64 -31 -35 -1 13 13 29 22 36 19 8 -3 13 3 13 16 0 12 3 21 8
21 4 0 13 9 20 20 7 11 11 20 10 20 -2 0 -29 -25 -61 -56z"/>
<path d="M7045 7019 c-4 -6 -5 -12 -2 -15 2 -3 7 2 10 11 7 17 1 20 -8 4z"/>
<path d="M7150 6966 c0 -2 8 -10 18 -17 15 -13 16 -12 3 4 -13 16 -21 21 -21
13z"/>
<path d="M7231 6793 c-12 -32 -30 -110 -31 -134 0 -9 7 -19 14 -22 9 -4 13 -1
11 6 -3 7 -1 26 4 42 l9 30 2 -40 c3 -58 3 -58 27 -90 l22 -30 2 35 c0 19 2
60 4 90 3 60 -4 85 -16 54 -7 -18 -8 -17 -8 3 -1 17 -5 21 -18 16 -14 -5 -15
-1 -10 30 7 44 3 47 -12 10z"/>
<path d="M3066 6806 c-116 -141 -150 -170 -191 -163 -18 3 -51 17 -74 31 -23
15 -41 22 -41 16 0 -5 5 -10 10 -10 6 0 10 -4 10 -10 0 -5 -8 -6 -17 -3 -12 5
-15 2 -11 -9 4 -8 2 -21 -3 -29 -8 -12 -10 -12 -19 1 -8 13 -10 13 -10 0 0
-11 -3 -11 -12 -2 -7 7 -16 12 -21 12 -11 0 67 -66 96 -82 99 -53 187 -16 285
117 20 28 46 60 58 71 39 40 94 111 94 121 0 12 -43 43 -59 43 -5 0 -48 -47
-95 -104z m-321 -204 c-3 -3 -11 0 -18 7 -9 10 -8 11 6 5 10 -3 15 -9 12 -12z"/>
<path d="M1900 6950 c0 -5 5 -10 11 -10 5 0 7 5 4 10 -3 6 -8 10 -11 10 -2 0
-4 -4 -4 -10z"/>
<path d="M4160 6494 c-85 -35 -297 -121 -470 -190 -173 -70 -321 -131 -327
-137 -16 -12 -17 -255 -3 -448 33 -427 114 -739 275 -1061 37 -73 70 -135 74
-138 3 -3 17 -26 31 -52 13 -27 28 -48 32 -48 3 0 10 -10 13 -21 25 -77 453
-549 668 -736 171 -149 464 -376 619 -481 l46 -32 74 50 c503 339 1009 818
1253 1187 41 61 75 115 75 118 0 3 17 33 38 68 85 142 180 374 231 567 59 222
87 457 98 805 5 174 4 212 -8 222 -8 6 -88 41 -179 78 -509 208 -612 250 -686
281 -45 19 -87 34 -95 34 -8 -1 -50 -35 -94 -76 -91 -85 -259 -215 -385 -297
-138 -89 -302 -187 -315 -187 -20 0 -283 162 -417 256 -116 82 -228 172 -334
267 -23 20 -45 37 -50 36 -5 0 -79 -29 -164 -65z m160 -139 c64 -64 90 -71 91
-22 0 26 2 28 8 12 5 -11 5 -29 1 -40 -14 -38 -43 -28 -110 40 -35 36 -60 65
-54 65 5 0 34 -25 64 -55z m1649 28 c-45 -61 -95 -103 -121 -103 -26 0 -28 2
-27 43 1 38 2 39 8 12 10 -48 39 -43 96 15 50 51 68 64 44 33z m-1684 -93 l90
-90 81 0 c68 0 86 -4 110 -22 16 -12 117 -108 224 -213 107 -105 228 -222 268
-260 l72 -68 27 24 c14 13 141 138 282 278 l256 253 95 5 95 4 50 52 c61 64
146 140 125 112 -8 -11 -51 -57 -94 -102 l-80 -83 -90 0 -91 0 -287 -287 -288
-286 0 -59 c0 -32 5 -67 12 -77 16 -26 3 -51 -27 -51 -29 0 -33 22 -12 63 8
14 15 50 16 80 l2 54 -237 234 c-130 129 -257 255 -282 282 l-45 47 -91 0 -91
0 -100 100 c-55 55 -95 100 -90 100 6 0 51 -41 100 -90z m-87 -60 c11 0 41
-24 68 -55 l49 -55 101 0 101 0 234 -234 c145 -144 244 -235 260 -239 46 -12
45 -67 -1 -67 -21 0 -44 25 -35 39 7 13 -51 76 -284 308 l-183 182 -97 -6 -97
-6 -45 51 c-25 28 -61 57 -80 65 -19 8 -55 38 -79 68 l-44 54 56 -52 c31 -29
66 -53 76 -53z m1976 78 c-56 -68 -90 -98 -111 -98 -15 0 -42 -19 -77 -55
l-53 -55 -101 0 -100 0 -226 -231 c-156 -161 -225 -238 -223 -251 3 -31 -29
-47 -50 -25 -21 20 -9 48 24 57 11 3 122 110 248 238 l227 232 100 0 100 0 47
50 c28 30 56 50 69 50 12 0 46 23 79 55 62 58 78 69 47 33z m-2478 -159 c45
-41 61 -49 80 -45 48 12 87 -32 64 -74 -23 -42 -100 -12 -100 39 0 9 -26 41
-57 73 -71 72 -63 76 13 7z m2855 -7 c-5 -9 -19 -26 -30 -36 -12 -11 -21 -28
-21 -39 0 -50 -66 -76 -93 -36 -28 39 8 79 63 71 8 -1 31 11 50 27 41 36 44
37 31 13z m-2931 -242 l0 -156 75 -74 75 -74 -2 -111 -2 -110 -3 106 -4 105
-79 79 -80 80 0 159 0 160 -32 36 c-30 32 -29 32 10 -5 l42 -39 0 -156z m3031
181 c-19 -26 -21 -43 -21 -185 l0 -156 -75 -76 c-73 -75 -75 -78 -76 -128 -1
-85 -17 -102 -18 -19 l-1 72 75 76 75 76 0 157 c0 156 0 156 27 184 34 36 40
36 14 -1z m-1856 -11 c10 -11 16 -20 13 -20 -3 0 -13 9 -23 20 -10 11 -16 20
-13 20 3 0 13 -9 23 -20z m695 16 c0 -2 -7 -7 -16 -10 -8 -3 -12 -2 -9 4 6 10
25 14 25 6z m1241 -33 l-31 -38 0 -165 0 -165 -80 -80 -80 -80 -1 -65 c-1 -61
-2 -63 -10 -25 -16 77 -13 83 71 169 l80 82 0 168 0 168 34 34 c45 45 55 43
17 -3z m-3204 -5 c22 -21 23 -27 23 -192 l0 -171 80 -80 80 -80 -2 -100 -2
-100 -3 95 -4 95 -78 80 -79 80 -6 175 c-6 160 -8 176 -28 197 -27 29 -12 30
19 1z m712 -4 c60 -30 100 -80 131 -160 25 -68 25 -99 1 -166 -11 -29 -22 -67
-26 -83 -3 -17 -14 -45 -24 -62 l-19 -30 -138 -5 -137 -5 -29 -31 c-15 -18
-28 -31 -29 -30 0 2 -2 28 -3 59 -3 50 -8 63 -44 105 -54 64 -72 110 -72 181
1 147 111 253 265 253 57 0 82 -5 124 -26z m1996 7 c94 -42 153 -123 162 -219
6 -69 -15 -127 -69 -188 -47 -53 -58 -75 -58 -123 0 -48 -5 -50 -32 -16 -19
24 -24 25 -135 25 -154 0 -175 10 -198 93 -9 34 -26 77 -37 95 -45 73 9 238
97 301 25 18 58 37 73 41 50 15 155 11 197 -9z m-1337 -61 c15 0 20 -5 16 -15
-7 -18 -44 -20 -44 -3 0 7 -12 26 -27 42 l-28 31 31 -27 c16 -16 40 -28 52
-28z m482 -14 c0 -2 -7 -7 -16 -10 -8 -3 -12 -2 -9 4 6 10 25 14 25 6z m-1878
-72 c10 -22 9 -27 -5 -35 -15 -9 -17 -28 -17 -139 0 -124 1 -130 26 -159 15
-18 35 -31 49 -31 47 0 62 -65 17 -81 -30 -11 -66 23 -58 55 4 16 -2 32 -19
52 -24 28 -25 35 -25 155 0 100 -3 129 -15 139 -18 15 -20 56 -2 63 26 11 38
6 49 -19z m3282 10 c20 -19 20 -28 1 -44 -12 -10 -15 -39 -15 -138 0 -117 -2
-127 -24 -157 -14 -18 -26 -49 -28 -71 -3 -35 -6 -39 -33 -42 -55 -7 -70 62
-16 74 14 4 40 20 58 37 l32 30 -6 126 c-4 84 -11 130 -20 139 -17 17 -16 27
3 46 8 9 19 16 24 16 5 0 16 -7 24 -16z m-2084 -189 c7 -8 10 -26 7 -41 -3
-20 6 -36 45 -80 49 -53 51 -54 104 -54 49 0 59 -4 97 -38 23 -21 50 -42 60
-45 9 -4 17 -16 17 -27 0 -29 -43 -24 -49 5 -2 11 -18 35 -37 53 -29 28 -40
32 -87 32 -52 0 -56 2 -103 52 -37 40 -56 53 -82 55 -39 3 -58 16 -68 45 -13
43 66 79 96 43z m930 -4 c23 -44 -1 -81 -54 -81 -25 0 -42 -11 -88 -57 -45
-47 -77 -98 -162 -261 -148 -283 -389 -724 -435 -798 -8 -11 -37 -33 -65 -49
-28 -16 -80 -48 -115 -72 -36 -24 -70 -43 -76 -43 -7 0 -70 26 -141 59 -71 32
-158 71 -194 86 -36 16 -96 43 -135 60 -38 18 -95 41 -125 53 -133 50 -210 91
-221 119 -19 49 -139 447 -139 463 0 8 30 50 66 93 l65 77 189 0 c111 0 199
-4 212 -10 13 -6 45 -43 71 -83 64 -95 119 -172 145 -202 l22 -25 222 0 c123
0 229 -4 237 -9 12 -8 10 -15 -10 -39 -22 -28 -29 -31 -84 -32 -45 0 -71 -7
-104 -25 -40 -23 -53 -25 -180 -26 -75 0 -141 0 -147 0 -6 1 -29 18 -51 39
-22 20 -65 61 -96 90 -32 29 -55 58 -51 63 3 5 15 -2 26 -16 20 -26 38 -33 38
-14 0 5 -5 7 -12 3 -8 -5 -9 -2 -5 10 4 10 3 15 -3 11 -6 -3 -10 -1 -10 4 0 6
6 11 13 11 6 0 0 8 -15 18 -16 9 -28 22 -28 29 0 15 -31 16 -132 4 -63 -6 -69
-5 -88 16 -23 27 -38 28 -86 8 -20 -8 -40 -13 -44 -10 -4 3 -10 -5 -14 -18 -5
-17 -8 -19 -15 -8 -5 8 -14 10 -22 5 -23 -14 -51 -15 -65 -3 -10 8 -14 8 -14
0 0 -6 5 -11 12 -11 8 0 9 -3 1 -11 -7 -7 -6 -23 3 -52 8 -23 28 -89 45 -147
17 -58 37 -122 45 -143 8 -20 14 -46 14 -57 0 -20 42 -43 145 -80 59 -21 127
-50 211 -91 34 -16 66 -29 71 -29 11 0 77 -27 163 -67 30 -14 92 -43 138 -65
l83 -38 34 35 c19 19 54 43 77 52 24 9 49 23 56 30 7 7 19 13 25 13 8 0 7 3
-2 9 -17 11 3 25 22 16 6 -4 4 0 -6 8 -15 13 -15 15 -2 20 8 4 12 13 9 22 -3
8 -1 15 5 15 6 0 11 8 11 18 1 16 1 16 11 -1 8 -13 7 -22 -1 -33 -7 -7 -8 -14
-4 -14 10 0 78 107 114 179 12 23 17 40 12 37 -5 -3 -17 -22 -27 -42 -15 -32
-28 -38 -31 -13 -1 5 -2 14 -3 19 0 6 -6 10 -12 10 -6 0 -9 -7 -6 -14 4 -10 1
-13 -9 -9 -10 4 -12 0 -8 -11 4 -10 -2 -26 -14 -39 -21 -23 -56 -96 -53 -110
1 -5 -7 -7 -16 -6 -10 2 -28 -2 -40 -9 -13 -7 -43 -16 -67 -21 -38 -7 -48 -5
-65 10 -11 11 -18 26 -15 34 4 10 0 15 -11 15 -9 0 -13 5 -10 11 4 6 13 8 21
5 9 -3 14 2 14 14 0 29 -25 24 -54 -10 -27 -33 -46 -37 -118 -25 -33 5 -48 4
-48 -4 0 -24 -47 -6 -264 100 -251 123 -245 117 -281 243 -26 87 -11 78 19
-12 15 -44 35 -87 44 -96 10 -8 110 -59 222 -112 l205 -97 89 -2 89 -2 30 34
c24 28 36 33 71 33 55 0 62 -8 33 -39 -52 -57 -37 -88 37 -77 l45 7 127 232
c71 128 153 279 184 337 30 58 89 169 130 248 82 156 91 165 188 178 46 6 58
12 96 55 30 33 42 55 39 68 -3 10 0 28 6 40 16 28 76 29 91 2z m-912 -313
c151 -4 172 -6 214 -28 52 -25 87 -60 113 -110 15 -30 15 -32 -17 -90 -18 -33
-35 -56 -38 -52 -3 4 -22 33 -42 64 -57 88 -60 89 -244 86 -153 -3 -158 -4
-164 -25 -5 -20 -10 -18 -70 34 -36 31 -66 58 -67 62 -1 3 31 34 70 68 l72 63
3 -34 3 -33 167 -5z m1122 -64 c0 -7 -4 -14 -9 -16 -8 -3 -47 -32 -102 -76
l-29 -24 0 26 0 26 -154 0 -154 0 31 63 c36 70 21 64 185 66 l92 1 0 36 0 36
70 -63 c39 -34 70 -68 70 -75z m-2293 24 c29 -28 33 -38 33 -87 0 -64 -7 -65
-11 -1 -2 36 -10 53 -38 83 -43 45 -30 50 16 5z m3162 2 c-33 -28 -34 -33 -40
-117 l-6 -88 -1 87 c-2 86 -1 88 29 118 18 16 36 30 42 30 5 0 -6 -13 -24 -30z
m-275 -6 c18 -7 126 -145 126 -162 0 -7 6 -12 13 -13 9 0 9 -2 0 -5 -6 -3 -21
-38 -33 -77 -12 -40 -33 -106 -46 -147 -23 -69 -24 -71 -17 -25 4 28 7 62 7
77 1 14 4 24 9 21 4 -2 7 5 7 15 0 12 -11 24 -30 32 -16 7 -30 18 -30 25 0 7
-9 15 -20 18 -11 3 -18 1 -15 -3 3 -5 1 -11 -5 -15 -5 -3 -10 -1 -10 6 0 9 -3
9 -14 0 -11 -9 -15 -9 -19 1 -3 9 -9 8 -19 -6 -10 -13 -17 -15 -22 -8 -4 7 -2
12 4 12 6 0 8 5 5 10 -10 16 -22 12 -52 -16 -15 -14 -29 -21 -31 -15 -2 6 -10
11 -18 11 -9 0 -12 5 -9 10 4 6 -7 10 -24 10 -17 0 -31 4 -31 9 0 10 -36 21
-44 14 -3 -3 -3 -10 0 -15 4 -6 8 -30 10 -54 2 -24 9 -54 16 -67 13 -23 46
-141 47 -166 2 -35 -19 11 -49 109 -17 58 -35 116 -39 130 -4 14 -12 25 -18
25 -6 0 -54 -40 -108 -90 -54 -49 -107 -93 -119 -96 -11 -4 -79 -4 -151 -1
-115 4 -135 8 -173 30 -37 21 -51 24 -101 19 -55 -6 -59 -5 -79 23 -26 35 -27
46 -6 54 9 3 113 6 233 6 247 0 223 -8 291 95 60 91 140 194 163 210 17 12 56
15 203 15 100 0 189 -3 198 -6z m-2274 -248 c0 -3 -4 -8 -10 -11 -5 -3 -10 -1
-10 4 0 6 5 11 10 11 6 0 10 -2 10 -4z m-36 -98 c-21 -76 -43 -130 -44 -106 0
24 50 181 56 175 3 -3 -2 -34 -12 -69z m2236 47 c-7 -8 -20 -15 -28 -15 -13 0
-12 3 4 15 25 19 40 19 24 0z m-1 -148 c-18 -56 -37 -108 -43 -116 -6 -7 -80
-46 -166 -87 -228 -109 -277 -134 -260 -134 13 0 13 -1 0 -10 -8 -5 -22 -10
-30 -10 -12 0 -12 2 -2 9 8 5 -5 8 -33 9 -32 0 -43 -3 -38 -11 4 -7 -1 -6 -10
2 -10 8 -28 11 -45 8 -29 -6 -61 9 -96 45 -11 12 -28 16 -49 14 -32 -4 -73 15
-60 27 3 4 27 7 53 7 39 0 51 -5 79 -34 l33 -34 86 3 c91 3 82 0 282 91 30 14
97 44 149 67 l95 43 40 117 c49 142 61 137 15 -6z m-1057 -55 c186 -330 172
-312 246 -312 38 0 52 22 33 52 -17 27 -5 37 14 12 19 -25 19 -58 0 -74 -26
-22 -160 -9 -152 14 3 7 -5 24 -16 37 -12 14 -19 20 -14 15 21 -28 -2 -67 -28
-46 -9 7 -15 8 -20 0 -3 -5 -1 -10 5 -10 6 0 9 -4 6 -9 -8 -12 30 -42 97 -76
32 -17 66 -37 75 -45 66 -57 45 -58 198 16 77 36 180 81 230 99 50 18 113 44
140 58 69 34 184 80 190 74 3 -2 -51 -28 -118 -57 -68 -29 -141 -60 -163 -70
-157 -69 -222 -98 -307 -136 -54 -24 -103 -44 -111 -44 -7 0 -38 18 -68 41
-30 22 -80 54 -112 70 -44 23 -65 42 -91 82 -46 74 -166 291 -166 302 0 14 53
125 59 125 3 0 36 -53 73 -118z m963 -1 c-3 -6 -11 -11 -16 -11 -5 0 -4 6 3
14 14 16 24 13 13 -3z m-2212 -18 c-7 -2 -21 -2 -30 0 -10 3 -4 5 12 5 17 0
24 -2 18 -5z m2392 -45 c-12 -56 -34 -87 -76 -109 -23 -11 -43 -18 -45 -16 -3
2 15 14 39 25 38 18 45 27 62 76 21 62 30 73 20 24z m-1544 -163 c12 8 11 -6
-1 -25 -8 -13 -10 -12 -10 3 0 9 -4 17 -10 17 -5 0 -6 8 -2 18 6 16 7 16 10
-1 2 -9 8 -15 13 -12z m1224 5 c3 -5 -3 -10 -15 -10 -12 0 -18 5 -15 10 3 6
10 10 15 10 5 0 12 -4 15 -10z m-958 -16 c3 -8 1 -20 -6 -27 -7 -7 -11 -87
-11 -257 l0 -246 -95 -91 -95 -91 0 -136 c0 -118 2 -136 18 -145 9 -6 11 -11
5 -11 -10 0 -13 -35 -13 -142 0 -245 -10 -143 -16 158 l-5 289 90 90 91 90 0
233 c0 136 -4 241 -10 252 -5 10 -7 26 -4 34 8 21 43 21 51 0z m-1334 -111
c-7 -2 -19 -2 -25 0 -7 3 -2 5 12 5 14 0 19 -2 13 -5z m1267 -47 c0 -8 -7 -19
-15 -26 -12 -10 -15 -39 -15 -139 l0 -126 -66 -67 c-42 -43 -75 -68 -88 -68
-43 0 -46 -13 -48 -234 l-1 -211 -7 140 c-4 77 -5 233 -3 348 4 178 2 209 -11
223 -20 19 -20 38 -1 54 33 27 70 -17 41 -49 -14 -15 -16 -38 -14 -137 l3
-119 34 2 c19 1 38 8 43 17 5 9 29 37 53 63 l44 48 1 123 c0 81 -4 129 -12
143 -11 17 -10 22 6 34 21 16 56 4 56 -19z m139 0 c10 -11 9 -21 -3 -45 -13
-24 -16 -67 -16 -214 l0 -185 -85 -83 -85 -83 0 -78 c0 -76 1 -81 36 -123 21
-24 46 -46 56 -48 28 -8 21 -61 -9 -65 -27 -4 -50 32 -34 52 8 10 5 21 -11 42
-12 16 -28 33 -35 37 -9 6 -13 36 -13 100 l0 92 85 85 85 85 0 187 c0 114 -4
189 -10 193 -11 7 -14 48 -3 58 11 11 30 8 42 -7z m316 -16 c3 -5 1 -10 -4
-10 -6 0 -11 5 -11 10 0 6 2 10 4 10 3 0 8 -4 11 -10z m578 -350 l-67 -65 54
60 c30 33 58 62 62 63 5 2 9 70 10 150 l2 147 3 -145 4 -144 -68 -66z m-1958
56 c30 -31 51 -56 47 -56 -4 0 -33 26 -65 58 l-57 58 0 74 c0 41 4 93 8 115 5
30 8 10 10 -76 l3 -117 54 -56z m-123 81 c2 -48 -1 -86 -6 -84 -9 3 -12 84 -6
192 4 78 8 48 12 -108z m1909 -195 c-168 -161 -170 -163 -174 -210 l-3 -47 -2
52 c-2 45 1 54 26 73 15 12 89 83 165 158 l137 136 4 70 c7 125 10 133 13 31
l4 -100 -170 -163z m-541 295 c0 -7 -7 -22 -15 -33 -12 -16 -14 -79 -15 -387
0 -305 -2 -369 -14 -373 -10 -4 -13 -18 -10 -47 l3 -42 -9 40 c-6 31 -5 43 7
52 13 10 14 60 12 365 -2 266 -6 361 -16 387 -16 41 -16 36 3 55 12 12 20 13
35 6 10 -6 19 -16 19 -23z m600 17 c0 -17 -42 -60 -143 -145 -57 -48 -107 -64
-122 -39 -9 15 -25 12 -25 -5 0 -8 9 -15 21 -15 11 0 17 -4 14 -10 -10 -16
-42 -12 -49 6 -3 8 -1 24 4 34 9 16 15 18 36 10 48 -18 70 -11 131 43 33 28
74 64 91 80 18 15 32 34 32 42 0 8 2 15 5 15 3 0 5 -7 5 -16z m-1650 -143 c47
-42 68 -49 99 -29 26 16 53 3 49 -24 -7 -50 -92 -13 -205 87 -92 84 -103 95
-103 109 0 4 26 -17 58 -47 31 -30 77 -73 102 -96z m-122 10 c2 -13 30 -48 65
-80 34 -31 99 -94 145 -140 l82 -84 -2 -106 -2 -106 -3 107 -4 107 -140 135
c-88 84 -146 133 -155 129 -31 -12 -62 48 -31 60 24 10 42 2 45 -22z m1796 6
c9 -15 7 -21 -9 -33 -11 -8 -25 -12 -33 -9 -8 3 -71 -52 -152 -131 l-139 -136
-4 -107 -3 -106 -2 111 -2 111 140 137 c77 76 140 143 140 150 0 17 22 37 39
34 7 -2 19 -11 25 -21z m-717 -23 c3 -8 1 -20 -6 -27 -7 -7 -11 -50 -11 -111
l0 -101 -102 -102 -101 -101 61 -65 62 -64 -2 -119 -1 -119 -6 117 -7 118 -57
58 c-31 32 -57 65 -57 73 0 9 43 58 95 110 l95 94 0 101 c0 61 -4 104 -11 111
-17 17 -3 43 21 43 11 0 23 -7 27 -16z m-1217 -99 c19 -19 32 -35 29 -35 -3 0
-20 16 -39 35 -19 19 -32 35 -29 35 3 0 20 -16 39 -35z m538 6 c2 -13 -1 -28
-7 -34 -7 -7 -12 -71 -13 -166 l-2 -156 -6 155 c-3 111 -9 161 -19 177 -13 18
-13 24 -1 38 18 22 44 15 48 -14z m996 6 c9 -14 7 -21 -6 -31 -16 -12 -18 -32
-18 -173 0 -147 2 -162 21 -187 12 -15 19 -35 16 -48 -4 -21 -4 -21 -6 3 0 14
-10 34 -21 44 -18 17 -20 31 -20 183 0 141 -2 167 -16 177 -14 9 -14 15 -5 34
14 25 39 24 55 -2z m-1276 -151 c60 -59 92 -98 91 -111 -1 -20 -1 -20 -6 0 -3
11 -55 69 -117 129 -61 60 -100 101 -86 91 14 -11 67 -60 118 -109z m-193 74
c10 -11 16 -20 13 -20 -3 0 -13 9 -23 20 -10 11 -16 20 -13 20 3 0 13 -9 23
-20z m1834 -65 c-18 -19 -35 -33 -37 -30 -4 4 55 65 64 65 3 0 -9 -16 -27 -35z
m-1758 -12 c13 -16 12 -17 -3 -4 -10 7 -18 15 -18 17 0 8 8 3 21 -13z m40 -40
c13 -16 12 -17 -3 -4 -17 13 -22 21 -14 21 2 0 10 -8 17 -17z m1643 -21 c-16
-15 -40 -36 -54 -47 -14 -10 -4 2 22 28 27 26 51 47 54 47 4 0 -7 -12 -22 -28z
m-625 -130 c7 -13 6 -23 -2 -31 -8 -8 -14 -76 -17 -214 l-6 -202 -2 198 c-1
129 -6 204 -14 216 -13 22 -4 51 16 51 9 0 20 -8 25 -18z m-706 -56 c-10 -13
-20 -22 -22 -20 -4 4 29 44 36 44 2 0 -4 -11 -14 -24z m116 -23 c19 -16 21
-23 12 -58 -5 -22 -9 -32 -10 -22 -1 14 -6 17 -22 12 -20 -7 -59 18 -59 37 0
11 38 48 49 48 5 0 18 -8 30 -17z m863 0 c23 -21 23 -36 -1 -57 -13 -11 -27
-15 -40 -11 -20 6 -21 2 -23 -57 -1 -61 -2 -60 -8 22 -6 76 -4 87 13 103 24
21 35 21 59 0z m-541 -176 c3 -106 -7 -107 -15 0 -3 47 -12 94 -18 102 -7 9
-2 7 10 -4 17 -17 21 -33 23 -98z m-165 40 c10 -6 13 -28 12 -80 l-2 -72 -3
67 c-3 42 -9 71 -18 78 -8 7 -15 20 -14 29 0 13 1 14 6 1 3 -8 12 -19 19 -23z
m247 -172 c-3 -9 -8 -14 -10 -11 -3 3 -2 9 2 15 9 16 15 13 8 -4z m4 -117 c-2
-18 -4 -4 -4 32 0 36 2 50 4 33 2 -18 2 -48 0 -65z"/>
<path d="M5105 5460 c-10 -17 12 -37 25 -24 8 8 6 15 -4 23 -10 9 -16 9 -21 1z"/>
<path d="M4997 5616 c-6 -16 19 -30 28 -16 7 11 -2 30 -15 30 -4 0 -10 -6 -13
-14z"/>
<path d="M5240 5615 c0 -8 7 -15 15 -15 8 0 15 7 15 15 0 8 -7 15 -15 15 -8 0
-15 -7 -15 -15z"/>
<path d="M3770 6055 c0 -20 5 -25 25 -25 20 0 25 5 25 25 0 20 -5 25 -25 25
-20 0 -25 -5 -25 -25z"/>
<path d="M6424 6065 c-8 -20 4 -35 27 -35 14 0 19 7 19 25 0 18 -5 25 -20 25
-11 0 -23 -7 -26 -15z"/>
<path d="M3466 5913 c-12 -12 -6 -33 9 -33 8 0 15 6 15 14 0 17 -14 28 -24 19z"/>
<path d="M3543 5523 c-18 -7 -16 -42 3 -50 8 -3 23 1 31 10 13 13 14 19 3 31
-13 17 -17 18 -37 9z"/>
<path d="M6750 5894 c0 -9 5 -14 12 -12 18 6 21 28 4 28 -9 0 -16 -7 -16 -16z"/>
<path d="M6654 5509 c-3 -6 0 -18 9 -26 18 -18 37 -9 37 18 0 21 -34 27 -46 8z"/>
<path d="M4634 5706 c-10 -26 4 -48 28 -44 17 2 23 10 23 28 0 18 -6 26 -23
28 -13 2 -25 -3 -28 -12z"/>
<path d="M4995 5440 c3 -5 8 -10 11 -10 2 0 4 5 4 10 0 6 -5 10 -11 10 -5 0
-7 -4 -4 -10z"/>
<path d="M5556 5704 c-10 -26 19 -52 42 -38 9 6 17 20 17 30 0 26 -50 32 -59
8z"/>
<path d="M4277 5084 c-4 -4 -2 -13 5 -21 6 -7 8 -17 4 -20 -4 -4 -11 -1 -16 7
-6 8 -10 10 -10 4 0 -6 14 -22 32 -35 18 -13 42 -34 54 -46 12 -13 27 -23 35
-23 8 0 6 5 -6 13 -10 8 -15 19 -11 25 3 6 2 13 -4 17 -23 14 -9 27 25 22 26
-4 35 -2 35 8 0 8 -4 17 -10 20 -6 3 -7 -1 -4 -10 5 -11 2 -14 -10 -9 -9 3
-13 10 -10 15 3 5 -2 9 -10 9 -9 0 -16 5 -16 10 0 6 -5 10 -10 10 -7 0 -7 -6
0 -20 9 -17 8 -20 -12 -17 -13 1 -30 12 -39 25 -8 12 -19 19 -22 16z"/>
<path d="M4922 4788 c-17 -17 -15 -33 2 -19 11 9 15 6 20 -15 8 -30 20 -23 30
16 6 22 6 23 -5 6 -11 -18 -12 -18 -23 3 -9 16 -14 19 -24 9z"/>
<path d="M4830 4631 c0 -5 -3 -17 -7 -27 -4 -11 -3 -15 4 -11 14 9 24 47 12
47 -5 0 -9 -4 -9 -9z"/>
<path d="M6070 5135 c0 -8 -4 -15 -8 -15 -12 0 -62 -44 -62 -53 0 -4 12 4 28
18 15 14 35 28 45 31 18 6 24 34 7 34 -5 0 -10 -7 -10 -15z"/>
<path d="M5895 5040 c-3 -5 -1 -10 4 -10 6 0 11 5 11 10 0 6 -2 10 -4 10 -3 0
-8 -4 -11 -10z"/>
<path d="M5935 5016 c-13 -13 -26 -22 -28 -20 -2 3 -12 -7 -21 -21 -17 -25
-17 -26 1 -17 22 13 90 82 80 82 -5 0 -19 -11 -32 -24z"/>
<path d="M5297 4792 c9 -6 10 -17 4 -39 -8 -26 -7 -31 5 -26 9 3 13 12 10 19
-10 25 11 15 22 -11 15 -33 15 -42 0 -27 -7 7 -15 12 -20 12 -12 0 11 -53 28
-67 9 -7 11 -13 5 -17 -6 -4 -22 11 -35 33 -26 40 -46 59 -46 43 0 -5 9 -19
20 -32 11 -13 20 -29 20 -37 0 -7 7 -13 15 -13 8 0 15 -5 15 -11 0 -5 5 -7 10
-4 6 3 10 -3 10 -14 0 -12 6 -21 14 -21 8 0 16 -6 19 -12 2 -7 7 -10 11 -7 10
10 -5 39 -20 39 -12 0 -19 20 -15 44 1 4 -3 14 -10 22 -6 8 -8 21 -5 30 7 19
-39 104 -57 104 -9 0 -9 -2 0 -8z"/>
<path d="M5250 4751 c0 -6 4 -13 10 -16 6 -3 7 1 4 9 -7 18 -14 21 -14 7z"/>
<path d="M5383 4652 c0 -12 5 -22 9 -22 11 0 10 12 -2 30 -7 12 -9 10 -7 -8z"/>
<path d="M5135 4620 c3 -5 11 -10 16 -10 6 0 7 5 4 10 -3 6 -11 10 -16 10 -6
0 -7 -4 -4 -10z"/>
<path d="M5057 4474 c-8 -8 1 -24 14 -24 5 0 9 7 9 15 0 15 -12 20 -23 9z"/>
<path d="M4852 4338 c6 -18 28 -21 28 -4 0 9 -7 16 -16 16 -9 0 -14 -5 -12
-12z"/>
<path d="M5200 4450 c0 -5 7 -10 15 -10 8 0 15 5 15 10 0 6 -7 10 -15 10 -8 0
-15 -4 -15 -10z"/>
<path d="M5113 3584 c-8 -21 13 -42 28 -27 13 13 5 43 -11 43 -6 0 -13 -7 -17
-16z"/>
<path d="M5370 4335 c0 -8 7 -15 15 -15 8 0 15 7 15 15 0 8 -7 15 -15 15 -8 0
-15 -7 -15 -15z"/>
<path d="M4474 4169 c-10 -17 13 -36 27 -22 12 12 4 33 -11 33 -5 0 -12 -5
-16 -11z"/>
<path d="M4204 4229 c-10 -17 13 -36 27 -22 12 12 4 33 -11 33 -5 0 -12 -5
-16 -11z"/>
<path d="M6000 4215 c0 -8 7 -15 15 -15 8 0 15 7 15 15 0 8 -7 15 -15 15 -8 0
-15 -7 -15 -15z"/>
<path d="M5290 4201 c0 -6 5 -13 10 -16 6 -3 10 1 10 9 0 9 -4 16 -10 16 -5 0
-10 -4 -10 -9z"/>
<path d="M4610 4106 c0 -9 7 -16 16 -16 9 0 14 5 12 12 -6 18 -28 21 -28 4z"/>
<path d="M5600 4105 c0 -8 7 -15 15 -15 8 0 15 7 15 15 0 8 -7 15 -15 15 -8 0
-15 -7 -15 -15z"/>
<path d="M5272 3759 c2 -6 8 -10 13 -10 5 0 11 4 13 10 2 6 -4 11 -13 11 -9 0
-15 -5 -13 -11z"/>
<path d="M4664 3675 c-4 -9 -2 -21 4 -27 16 -16 47 -5 47 17 0 26 -42 34 -51
10z"/>
<path d="M5523 3674 c-3 -8 -1 -20 5 -26 16 -16 47 -5 50 20 3 18 -1 22 -23
22 -14 0 -28 -7 -32 -16z"/>
<path d="M7011 5424 c0 -11 3 -14 6 -6 3 7 2 16 -1 19 -3 4 -6 -2 -5 -13z"/>
<path d="M6940 5370 c0 -5 5 -10 11 -10 5 0 7 5 4 10 -3 6 -8 10 -11 10 -2 0
-4 -4 -4 -10z"/>
<path d="M7001 5363 c-1 -12 -5 -25 -11 -28 -5 -3 -11 -18 -11 -33 -1 -17 -3
-21 -6 -9 -2 9 -9 14 -15 11 -7 -4 -8 2 -3 17 6 20 5 22 -6 12 -19 -18 -28
-16 -40 10 -9 21 -9 20 -6 -5 3 -19 0 -28 -10 -28 -8 0 -11 -5 -8 -10 4 -6 15
-8 25 -5 10 3 21 1 25 -5 3 -5 0 -10 -8 -10 -21 0 -50 -37 -44 -55 4 -8 3 -14
-1 -14 -20 3 -31 -3 -36 -18 -3 -10 -3 5 -1 32 4 48 4 47 -15 -21 -111 -419
-312 -796 -598 -1124 -173 -198 -438 -448 -657 -622 -55 -44 -109 -87 -120
-96 -27 -23 -126 -96 -220 -162 -43 -30 -83 -60 -89 -66 -18 -17 -57 2 -156
77 -47 36 -107 80 -135 99 -27 19 -56 40 -63 47 -8 7 -30 26 -50 41 -21 15
-43 33 -50 40 -8 7 -30 25 -50 39 -92 68 -379 333 -498 459 -263 279 -400 464
-518 700 -94 190 -117 246 -175 424 -23 69 -39 110 -36 93 6 -46 -13 -41 -21
4 -6 34 -8 36 -17 16 -5 -11 -20 -26 -34 -32 -21 -10 -29 -9 -44 5 -11 10 -21
15 -24 13 -9 -9 65 -276 100 -364 53 -130 137 -299 189 -380 25 -38 58 -92 75
-120 67 -114 290 -385 441 -535 131 -130 271 -260 311 -288 13 -9 29 -21 35
-27 115 -107 502 -398 521 -390 7 2 12 0 10 -4 -1 -5 36 -34 81 -65 79 -54 85
-56 105 -42 12 9 46 32 75 52 29 20 51 39 48 41 -3 3 -17 -4 -32 -16 -30 -24
-53 -28 -35 -7 10 12 8 15 -6 19 -10 2 -6 3 10 1 19 -3 27 1 27 12 0 8 4 13 9
9 5 -3 12 -1 16 5 9 15 23 12 27 -6 5 -28 474 328 698 531 497 447 841 970
965 1463 13 52 21 101 18 110 -4 8 -2 13 3 9 11 -7 49 184 41 205 -3 7 -6 3
-6 -9z m-34 -125 c-3 -8 -6 -5 -6 6 -1 11 2 17 5 13 3 -3 4 -12 1 -19z m-100
-90 c-3 -7 -5 -2 -5 12 0 14 2 19 5 13 2 -7 2 -19 0 -25z m83 18 c0 -3 -4 -8
-10 -11 -5 -3 -10 -1 -10 4 0 6 5 11 10 11 6 0 10 -2 10 -4z m-3560 -36 c0 -5
-5 -10 -11 -10 -5 0 -7 5 -4 10 3 6 8 10 11 10 2 0 4 -4 4 -10z m-70 -31 c0
-11 -4 -17 -10 -14 -5 3 -10 13 -10 21 0 8 5 14 10 14 6 0 10 -9 10 -21z m60
-19 c0 -4 -7 -13 -15 -20 -19 -16 -41 1 -32 24 6 15 47 11 47 -4z m3541 -47
c-12 -20 -14 -14 -5 12 4 9 9 14 11 11 3 -2 0 -13 -6 -23z m-3251 -729 c0 -8
-4 -12 -10 -9 -5 3 -10 10 -10 16 0 5 5 9 10 9 6 0 10 -7 10 -16z m1751 -997
c-6 -8 -7 -18 -3 -22 4 -5 1 -5 -6 -1 -10 6 -10 11 -1 22 6 8 14 14 16 14 3 0
0 -6 -6 -13z m-235 -172 c-11 -8 -22 -12 -25 -9 -6 6 19 24 34 24 6 -1 1 -7
-9 -15z m-106 -5 c8 -5 11 -10 5 -10 -5 0 -17 5 -25 10 -8 5 -10 10 -5 10 6 0
17 -5 25 -10z m144 -9 c3 -5 -1 -11 -9 -15 -9 -3 -15 0 -15 9 0 16 16 20 24 6z
m86 -46 c0 -12 -19 -12 -23 0 -4 9 -1 12 9 8 7 -3 14 -7 14 -8z m-295 -45 c3
-5 20 -14 38 -19 28 -8 29 -9 7 -10 -14 0 -36 8 -50 19 -14 11 -20 20 -13 20
6 0 15 -4 18 -10z"/>
<path d="M6865 5360 c3 -5 8 -10 11 -10 2 0 4 5 4 10 0 6 -5 10 -11 10 -5 0
-7 -4 -4 -10z"/>
<path d="M6862 5300 c0 -14 2 -19 5 -12 2 6 2 18 0 25 -3 6 -5 1 -5 -13z"/>
<path d="M8502 5862 c4 -14 0 -26 -10 -33 -15 -9 -15 -10 1 -5 10 3 21 6 23 6
9 0 3 39 -8 46 -8 5 -9 0 -6 -14z"/>
<path d="M8550 5435 c0 -8 2 -15 4 -15 2 0 6 7 10 15 3 8 1 15 -4 15 -6 0 -10
-7 -10 -15z"/>
<path d="M1671 5314 c0 -11 3 -14 6 -6 3 7 2 16 -1 19 -3 4 -6 -2 -5 -13z"/>
<path d="M1536 5065 c-9 -26 -7 -32 5 -12 6 10 9 21 6 23 -2 3 -7 -2 -11 -11z"/>
<path d="M1850 3936 c0 -8 4 -17 9 -20 5 -4 7 3 4 14 -6 23 -13 26 -13 6z"/>
<path d="M1835 3899 c-4 -6 -5 -12 -2 -15 2 -3 7 2 10 11 7 17 1 20 -8 4z"/>
<path d="M8270 3731 c0 -6 4 -13 10 -16 6 -3 7 1 4 9 -7 18 -14 21 -14 7z"/>
<path d="M7841 2934 c0 -11 3 -14 6 -6 3 7 2 16 -1 19 -3 4 -6 -2 -5 -13z"/>
<path d="M6670 2882 c-87 -58 -210 -154 -210 -163 0 -17 18 -46 81 -129 54
-72 61 -78 77 -65 19 16 88 66 191 140 66 47 83 65 62 65 -5 0 -64 -40 -132
-90 -116 -84 -149 -102 -149 -81 0 5 56 51 125 102 109 81 140 109 120 109 -8
0 -55 -31 -80 -52 -53 -45 -171 -128 -182 -128 -30 0 -6 22 102 99 63 45 117
86 121 92 7 12 -52 105 -72 113 -21 8 -25 7 -54 -12z"/>
<path d="M3505 2819 c-30 -43 -34 -54 -23 -64 34 -33 252 -174 260 -169 17 11
68 97 68 116 0 21 -217 168 -248 168 -13 0 -34 -19 -57 -51z"/>
<path d="M7446 2514 c-6 -15 -4 -15 11 -3 10 7 20 15 22 16 2 2 -3 3 -11 3 -9
0 -19 -7 -22 -16z"/>
<path d="M7237 2352 c-10 -10 -14 -23 -10 -28 5 -5 -1 -1 -13 9 -22 18 -36 14
-27 -9 11 -31 83 -5 83 30 0 21 -13 20 -33 -2z"/>
<path d="M6836 2097 c3 -10 9 -15 12 -12 3 3 0 11 -7 18 -10 9 -11 8 -5 -6z"/>
<path d="M6800 2079 c0 -5 5 -7 10 -4 6 3 10 8 10 11 0 2 -4 4 -10 4 -5 0 -10
-5 -10 -11z"/>
<path d="M3595 1980 c-3 -5 -2 -10 4 -10 5 0 13 5 16 10 3 6 2 10 -4 10 -5 0
-13 -4 -16 -10z"/>
<path d="M3785 1897 c-7 -16 -21 -17 -43 -3 -7 4 -15 6 -17 4 -8 -7 10 -25 32
-32 16 -5 25 -2 33 14 6 12 9 24 6 27 -3 3 -8 -1 -11 -10z"/>
<path d="M3932 1840 c14 -22 24 -19 15 5 -4 8 -11 15 -17 15 -6 0 -6 -7 2 -20z"/>
<path d="M3890 1836 c0 -2 9 -6 20 -9 11 -3 20 -1 20 4 0 5 -9 9 -20 9 -11 0
-20 -2 -20 -4z"/>
<path d="M4038 1773 c7 -3 16 -2 19 1 4 3 -2 6 -13 5 -11 0 -14 -3 -6 -6z"/>
<path d="M4310 1717 c0 -10 8 -17 18 -17 9 0 13 4 7 8 -5 4 -13 11 -17 16 -5
5 -8 2 -8 -7z"/>
<path d="M4460 1700 c0 -13 11 -13 30 0 12 8 11 10 -7 10 -13 0 -23 -4 -23
-10z"/>
<path d="M4498 1683 c6 -2 18 -2 25 0 6 3 1 5 -13 5 -14 0 -19 -2 -12 -5z"/>
<path d="M4450 1666 c0 -2 9 -6 20 -9 11 -3 18 -1 14 4 -5 9 -34 13 -34 5z"/>
<path d="M4538 1663 c7 -3 16 -2 19 1 4 3 -2 6 -13 5 -11 0 -14 -3 -6 -6z"/>
<path d="M4781 1634 c0 -11 3 -14 6 -6 3 7 2 16 -1 19 -3 4 -6 -2 -5 -13z"/>
<path d="M9630 451 c0 -5 5 -13 10 -16 6 -3 10 -2 10 4 0 5 -4 13 -10 16 -5 3
-10 2 -10 -4z"/>
<path d="M9709 443 c-13 -16 -12 -17 4 -4 9 7 17 15 17 17 0 8 -8 3 -21 -13z"/>
</g>
</svg>
